SplineFontDB: 3.0
FontName: Trocchi-Bold
FullName: Trocchi Bold
FamilyName: Trocchi
Weight: Bold
Copyright: Font Data Copyright 2013 (c) Vernon Adams
Version: 1
ItalicAngle: 0
UnderlinePosition: -102
UnderlineWidth: 102
Ascent: 1638
Descent: 410
sfntRevision: 0x00010000
LayerCount: 2
Layer: 0 0 "Back"  1
Layer: 1 0 "Fore"  0
XUID: [1021 14 500265001 15295528]
FSType: 0
OS2Version: 3
OS2_WeightWidthSlopeOnly: 0
OS2_UseTypoMetrics: 1
CreationTime: 1332931021
ModificationTime: 1385079834
PfmFamily: 81
TTFWeight: 700
TTFWidth: 5
LineGap: 0
VLineGap: 0
OS2TypoAscent: 1638
OS2TypoAOffset: 0
OS2TypoDescent: -410
OS2TypoDOffset: 0
OS2TypoLinegap: 0
OS2WinAscent: 2193
OS2WinAOffset: 0
OS2WinDescent: 754
OS2WinDOffset: 0
HheadAscent: 2193
HheadAOffset: 0
HheadDescent: -754
HheadDOffset: 0
OS2Vendor: 'newt'
Lookup: 258 0 0 "'kern' Horizontal Kerning lookup 0"  {"'kern' Horizontal Kerning lookup 0 per glyph data 0" [150,15,0] "'kern' Horizontal Kerning lookup 0 kerning class 1" [150,0,0] } ['kern' ('DFLT' <'dflt' > 'latn' <'dflt' > ) ]
MarkAttachClasses: 1
DEI: 91125
KernClass2: 29+ 29 "'kern' Horizontal Kerning lookup 0 kerning class 1" 
 1 F
 1 J
 1 K
 1 L
 1 a
 1 d
 1 e
 1 f
 1 s
 1 x
 1 z
 1 B
 5 H M N
 12 D O Q Oslash
 1 P
 1 T
 1 U
 1 V
 1 W
 1 Y
 1 k
 19 b o p otilde oslash
 1 r
 1 v
 1 w
 1 y
 1 A
 1 R
 5 h m n
 1 A
 15 a aring aogonek
 59 c d e o q ccedilla eacute ecircumflex otilde oslash eogonek
 1 u
 1 w
 1 y
 26 C G O Q Ccedilla Oslash OE
 1 v
 1 T
 1 V
 1 W
 1 Y
 5 comma
 6 period
 1 X
 1 g
 1 s
 9 semicolon
 1 z
 1 r
 1 i
 1 b
 1 l
 1 x
 1 k
 1 h
 1 U
 3 m n

StartChar: Eth
Encoding: 165 208 1
Width: 1683
Flags: W
HStem: 0 178<41 285 582 921.06> 670 147<96 285 582 831> 1335 185<41 285 582 924.417>
VStem: 285 297<178 670 817 1333> 1276 317<497.874 1003.32>
LayerCount: 2
Fore
SplineSet
582 0 m 2
 41 0 l 1
 41 178 l 1
 285 178 l 1
 285 670 l 1
 96 670 l 1
 96 817 l 1
 285 817 l 1
 285 1335 l 1
 41 1335 l 1
 41 1520 l 1
 528 1520 l 2
 1042 1520 1593 1418 1593 750 c 0
 1593 154 1119 0 582 0 c 2
582 178 m 1
 930 178 1276 258 1276 741 c 0
 1276 1265 926 1333 582 1333 c 1
 582 817 l 1
 831 817 l 1
 831 670 l 1
 582 670 l 1
 582 178 l 1
EndSplineSet
EndChar

StartChar: Thorn
Encoding: 179 222 2
Width: 1484
Flags: W
HStem: 0 178<47 291 588 838> 379 158<588 981.795> 1022 160<588 973.656> 1341 179<41 291 588 831>
VStem: 291 297<178 379 537 1022 1182 1341> 1075 318<621.496 926.56>
LayerCount: 2
Fore
SplineSet
47 0 m 1
 47 178 l 1
 291 178 l 1
 291 1341 l 1
 41 1341 l 1
 41 1520 l 1
 831 1520 l 1
 831 1341 l 1
 588 1341 l 1
 588 1182 l 1
 776 1182 l 2
 1016 1182 1393 1171 1393 780 c 0
 1393 387 1022 379 680 379 c 2
 588 379 l 1
 588 178 l 1
 838 178 l 1
 838 0 l 1
 47 0 l 1
698 537 m 2
 891 537 1075 541 1075 772 c 0
 1075 997 928 1022 678 1022 c 0
 668 1022 598 1022 588 1022 c 1
 588 537 l 1
 698 537 l 2
EndSplineSet
EndChar

StartChar: thorn
Encoding: 211 254 3
Width: 1239
Flags: W
HStem: -401 178<-27 168 424 637> -27 164<545.191 788.939> 920 182<565.279 785.996> 1356 164<-43 168>
VStem: 168 256<-217 135 270.19 776.431 885 1356> 901 270<276.59 775.463>
LayerCount: 2
Fore
SplineSet
-27 -401 m 1
 -27 -223 l 1
 168 -223 l 1
 168 1356 l 1
 -43 1356 l 1
 -43 1520 l 1
 424 1520 l 1
 424 885 l 1
 496 1061 628 1102 737 1102 c 0
 1003 1102 1171 856 1171 537 c 0
 1171 218 1002 -27 723 -27 c 0
 604 -27 492 22 424 135 c 1
 424 -217 l 1
 637 -217 l 1
 637 -401 l 1
 -27 -401 l 1
668 137 m 0
 861 137 901 371 901 549 c 0
 901 721 838 920 666 920 c 0
 500 920 424 759 424 489 c 0
 424 323 482 137 668 137 c 0
EndSplineSet
EndChar

StartChar: onehalf
Encoding: 146 189 4
Width: 1878
Flags: W
HStem: 0 135<1405 1708> 731 100<1370.68 1610.05> 741 115<260 389 565 690>
VStem: 389 176<856 1389> 1169 248<475.125 640.051> 1649 178<465.762 689.456>
LayerCount: 2
Fore
SplineSet
1833 135 m 1xdc
 1860 -131 l 1
 1780 -139 l 1
 1708 0 l 1
 1212 0 l 1
 1212 0 1198 150 1196 150 c 2
 1196 150 1520 389 1536 403 c 0
 1624 471 1649 514 1649 588 c 0
 1649 662 1595 731 1497 731 c 0
 1436 731 1378 702 1337 659 c 1
 1372 649 1417 618 1417 565 c 0
 1417 485 1366 444 1296 444 c 0
 1208 444 1171 520 1169 575 c 1
 1169 582 l 2
 1169 707 1331 831 1528 831 c 0
 1716 831 1827 737 1827 553 c 0
 1827 465 1796 375 1612 262 c 2
 1405 135 l 1
 1833 135 l 1xdc
260 741 m 1xbc
 260 856 l 1
 389 856 l 1
 389 1389 l 1
 260 1354 l 1
 260 1483 l 1
 565 1561 l 1
 565 856 l 1
 690 856 l 1
 690 741 l 1
 260 741 l 1xbc
1395 1509 m 1
 1509 1419 l 1
 444 -61 l 1
 330 29 l 1
 1395 1509 l 1
EndSplineSet
EndChar

StartChar: onequarter
Encoding: 145 188 5
Width: 1878
Flags: W
HStem: 0 115<1231 1376 1552 1683> 250 115<1171 1376 1552 1683> 741 115<260 389 565 690>
VStem: 389 176<856 1389> 1376 176<115 250 365 686>
LayerCount: 2
Fore
SplineSet
1376 365 m 1
 1376 686 l 1
 1171 365 l 1
 1376 365 l 1
1683 115 m 1
 1683 0 l 1
 1231 0 l 1
 1231 115 l 1
 1376 115 l 1
 1376 250 l 1
 1028 250 l 1
 1028 373 l 1
 1343 815 l 1
 1552 815 l 1
 1552 365 l 1
 1683 365 l 1
 1683 250 l 1
 1552 250 l 1
 1552 115 l 1
 1683 115 l 1
260 741 m 1
 260 856 l 1
 389 856 l 1
 389 1389 l 1
 260 1354 l 1
 260 1483 l 1
 565 1561 l 1
 565 856 l 1
 690 856 l 1
 690 741 l 1
 260 741 l 1
1395 1509 m 1
 1509 1419 l 1
 444 -61 l 1
 330 29 l 1
 1395 1509 l 1
EndSplineSet
EndChar

StartChar: threequarters
Encoding: 147 190 6
Width: 1878
Flags: W
HStem: 0 115<1231 1376 1552 1683> 250 115<1171 1376 1552 1683> 741 115<260 389 565 690>
VStem: 389 176<856 1389> 1376 176<115 250 365 686>
LayerCount: 2
Fore
SplineSet
1376 365 m 1
 1376 686 l 1
 1171 365 l 1
 1376 365 l 1
1683 115 m 1
 1683 0 l 1
 1231 0 l 1
 1231 115 l 1
 1376 115 l 1
 1376 250 l 1
 1028 250 l 1
 1028 373 l 1
 1343 815 l 1
 1552 815 l 1
 1552 365 l 1
 1683 365 l 1
 1683 250 l 1
 1552 250 l 1
 1552 115 l 1
 1683 115 l 1
260 741 m 1
 260 856 l 1
 389 856 l 1
 389 1389 l 1
 260 1354 l 1
 260 1483 l 1
 565 1561 l 1
 565 856 l 1
 690 856 l 1
 690 741 l 1
 260 741 l 1
1395 1509 m 1
 1509 1419 l 1
 444 -61 l 1
 330 29 l 1
 1395 1509 l 1
EndSplineSet
EndChar

StartChar: uni00B2
Encoding: 135 178 7
Width: 1042
Flags: W
HStem: 686 135<418 721> 1417 101<383.681 623.053>
VStem: 182 248<1161.49 1326.12> 662 178<1152.13 1375.55>
LayerCount: 2
Fore
SplineSet
846 821 m 1
 872 555 l 1
 793 547 l 1
 721 686 l 1
 225 686 l 1
 225 686 211 836 209 836 c 2
 209 836 533 1076 549 1090 c 0
 637 1158 662 1200 662 1274 c 0
 662 1348 608 1417 510 1417 c 0
 449 1417 391 1389 350 1346 c 1
 385 1336 430 1304 430 1251 c 0
 430 1171 379 1130 309 1130 c 0
 221 1130 184 1207 182 1262 c 1
 182 1268 l 2
 182 1393 344 1518 541 1518 c 0
 729 1518 840 1423 840 1239 c 0
 840 1151 809 1061 625 948 c 2
 418 821 l 1
 846 821 l 1
EndSplineSet
EndChar

StartChar: brokenbar
Encoding: 123 166 8
Width: 692
Flags: W
VStem: 246 200<-246 449 911 1606>
LayerCount: 2
Fore
SplineSet
446 449 m 1
 446 -246 l 1
 246 -246 l 1
 246 449 l 1
 446 449 l 1
446 1606 m 1
 446 911 l 1
 246 911 l 1
 246 1606 l 1
 446 1606 l 1
EndSplineSet
EndChar

StartChar: minus
Encoding: 65537 8722 9
Width: 927
Flags: W
HStem: 350 148<96 831>
LayerCount: 2
Fore
SplineSet
96 498 m 1
 831 498 l 1
 831 350 l 1
 96 350 l 1
 96 498 l 1
EndSplineSet
EndChar

StartChar: multiply
Encoding: 172 215 10
Width: 1425
Flags: W
LayerCount: 2
Fore
SplineSet
973 995 m 1
 1135 834 l 1
 453 152 l 1
 291 313 l 1
 973 995 l 1
291 834 m 1
 453 995 l 1
 1135 313 l 1
 973 152 l 1
 291 834 l 1
EndSplineSet
EndChar

StartChar: exclam
Encoding: 23 33 12
Width: 856
Flags: W
HStem: 0 369<315.632 548.368>
VStem: 248 368<67.6318 301.605> 387 96<506 619.406>
LayerCount: 2
Fore
SplineSet
483 506 m 1xa0
 387 506 l 1
 264 1479 l 1
 606 1479 l 1
 483 506 l 1xa0
616 184 m 0xc0
 616 84 532 0 432 0 c 0
 332 0 248 84 248 184 c 0
 248 286 332 369 432 369 c 0
 532 369 616 286 616 184 c 0xc0
EndSplineSet
EndChar

StartChar: quotedbl
Encoding: 24 34 13
Width: 667
Flags: W
HStem: 891 645<150.196 222.894 430.197 503.894>
VStem: 78 217<1118.17 1519.49> 358 217<1118.17 1519.49>
LayerCount: 2
Fore
SplineSet
469 1536 m 0
 545 1536 575 1493 575 1438 c 0
 575 1432 504 922 504 922 c 2
 502 902 483 891 467 891 c 0
 451 891 434 902 430 922 c 2
 430 922 358 1432 358 1438 c 0
 358 1493 397 1536 469 1536 c 0
188 1536 m 0
 264 1536 295 1493 295 1438 c 0
 295 1432 223 922 223 922 c 2
 221 902 202 891 186 891 c 0
 170 891 154 902 150 922 c 2
 150 922 78 1432 78 1438 c 0
 78 1493 116 1536 188 1536 c 0
EndSplineSet
EndChar

StartChar: numbersign
Encoding: 25 35 14
Width: 1294
Flags: W
HStem: 500 159<68 1155> 913 160<164 1251>
LayerCount: 2
Fore
SplineSet
68 659 m 1
 1155 659 l 1
 1155 500 l 1
 68 500 l 1
 68 659 l 1
1208 1561 m 1
 719 -109 l 1
 555 -63 l 1
 1044 1606 l 1
 1208 1561 l 1
588 1606 m 1
 752 1561 l 1
 262 -109 l 1
 98 -63 l 1
 588 1606 l 1
164 1073 m 1
 1251 1073 l 1
 1251 913 l 1
 164 913 l 1
 164 1073 l 1
EndSplineSet
EndChar

StartChar: dollar
Encoding: 26 36 15
Width: 1394
Flags: W
HStem: -27 174<443.088 910.647> 1362 188<504.635 969.839>
VStem: 90 387<274.656 497.924> 106 293<1068.78 1276.03> 657 97<-190 1659> 887 354<1056.44 1273.7> 1022 285<242.244 467.298>
LayerCount: 2
Fore
SplineSet
657 1659 m 1xc8
 754 1661 l 1
 754 -190 l 1
 657 -193 l 1
 657 1659 l 1xc8
90 371 m 0xea
 90 461 148 567 287 567 c 0
 385 567 477 491 477 393 c 0
 477 313 418 233 367 223 c 1
 465 172 592 147 692 147 c 0
 901 147 1022 231 1022 352 c 0xea
 1022 461 969 522 629 645 c 0
 221 792 110 921 106 1124 c 0
 106 1126 106 1128 106 1130 c 0
 106 1366 350 1550 682 1550 c 0
 905 1550 1241 1471 1241 1188 c 0
 1241 1184 1241 1182 1241 1178 c 0
 1239 1094 1200 1004 1071 1004 c 0
 973 1004 887 1061 887 1159 c 0
 887 1233 936 1304 979 1327 c 1
 926 1350 848 1362 766 1362 c 0
 594 1362 411 1330 399 1180 c 1xdc
 399 1088 438 1030 717 924 c 0
 1163 754 1293 674 1307 422 c 1
 1307 406 l 2
 1307 177 1127 -27 717 -27 c 0
 404 -27 90 95 90 371 c 0xea
EndSplineSet
EndChar

StartChar: percent
Encoding: 27 37 16
Width: 1828
Flags: W
HStem: -37 133<1286.89 1521.19> 598 137<1282.63 1520.98> 739 133<332.886 567.038> 1374 137<328.631 566.835>
VStem: 47 203<963.762 1292.43> 647 201<958.952 1291.56> 1001 203<187.762 516.428> 1602 200<182.952 515.557>
LayerCount: 2
Fore
SplineSet
250 1130 m 0
 250 1001 316 872 451 872 c 0
 584 872 647 999 647 1128 c 0
 647 1251 590 1374 449 1374 c 0
 308 1374 250 1253 250 1130 c 0
47 1124 m 0
 47 1317 181 1511 449 1511 c 0
 715 1511 848 1317 848 1122 c 0
 848 932 719 739 451 739 c 0
 179 739 47 931 47 1124 c 0
1001 348 m 0
 1001 541 1135 735 1403 735 c 0
 1669 735 1802 541 1802 346 c 0
 1802 156 1673 -37 1405 -37 c 0
 1133 -37 1001 155 1001 348 c 0
1204 354 m 0
 1204 225 1270 96 1405 96 c 0
 1538 96 1602 223 1602 352 c 0
 1602 475 1544 598 1403 598 c 0
 1262 598 1204 477 1204 354 c 0
1362 1513 m 1
 1501 1411 l 1
 459 -70 l 1
 319 33 l 1
 1362 1513 l 1
EndSplineSet
EndChar

StartChar: ampersand
Encoding: 28 38 17
Width: 1810
Flags: W
HStem: -35 172<1210.81 1441.12> -29 209<422.092 731.413> 821 158<1141 1313 1536 1716> 1358 151<634.569 892.006>
VStem: 80 274<248.825 510.188> 340 248<1057.56 1311.61> 934 203<1089.67 1319.17> 1485 194<180.398 518>
LayerCount: 2
Fore
SplineSet
1329 -35 m 0xb7
 1198 -35 1089 -8 942 156 c 1
 821 52 700 -29 514 -29 c 0
 258 -29 80 117 80 338 c 0x7b
 80 592 202 641 485 827 c 1
 409 952 340 1092 340 1184 c 0
 340 1385 497 1509 780 1509 c 0
 964 1509 1137 1395 1137 1233 c 0
 1137 1057 1036 946 786 788 c 1
 1014 463 l 1
 1313 821 l 1
 1141 821 l 1
 1141 979 l 1
 1716 979 l 1
 1716 821 l 1
 1536 821 l 1
 1104 309 l 1
 1167 203 1245 137 1319 137 c 0
 1401 137 1485 148 1485 375 c 2
 1485 518 l 1
 1679 518 l 1
 1679 393 l 2
 1679 135 1628 -35 1329 -35 c 0xb7
694 942 m 1
 825 1034 934 1079 934 1214 c 1
 932 1310 862 1358 780 1358 c 0
 674 1358 588 1313 588 1200 c 0x37
 588 1116 653 1022 694 942 c 1
565 180 m 0x7b
 659 180 773 231 836 305 c 1
 588 672 l 1x77
 416 566 354 473 354 389 c 0
 354 237 456 180 565 180 c 0x7b
EndSplineSet
EndChar

StartChar: parenleft
Encoding: 30 40 18
Width: 872
Flags: W
HStem: -150 127<587.346 694> 1477 127<587.346 694>
VStem: 74 266<419.887 1033.25>
LayerCount: 2
Fore
SplineSet
340 727 m 0
 340 365 444 24 694 -23 c 1
 694 -150 l 1
 295 -111 74 317 74 727 c 0
 74 1135 295 1565 694 1604 c 1
 694 1477 l 1
 444 1430 340 1087 340 727 c 0
EndSplineSet
EndChar

StartChar: parenright
Encoding: 31 41 19
Width: 872
Flags: W
HStem: -150 127<74 180.654> 1477 127<74 180.654>
VStem: 428 266<420.749 1034.11>
LayerCount: 2
Fore
SplineSet
428 727 m 0
 428 1089 324 1430 74 1477 c 1
 74 1604 l 1
 473 1565 694 1137 694 727 c 0
 694 319 473 -111 74 -150 c 1
 74 -23 l 1
 324 24 428 367 428 727 c 0
EndSplineSet
EndChar

StartChar: asterisk
Encoding: 32 42 20
Width: 1615
Flags: W
LayerCount: 2
Fore
SplineSet
1104 311 m 1
 809 797 l 1
 512 311 l 1
 340 465 l 1
 723 862 l 1
 205 1024 l 1
 287 1219 l 1
 764 946 l 1
 698 1479 l 1
 918 1479 l 1
 852 946 l 1
 1329 1219 l 1
 1411 1024 l 1
 893 862 l 1
 1276 465 l 1
 1104 311 l 1
EndSplineSet
EndChar

StartChar: plus
Encoding: 33 43 21
Width: 1425
Flags: W
HStem: 473 199<250 1176>
VStem: 598 229<92 1055>
LayerCount: 2
Fore
SplineSet
250 473 m 1
 250 672 l 1
 1176 672 l 1
 1176 473 l 1
 250 473 l 1
598 1055 m 1
 827 1055 l 1
 827 92 l 1
 598 92 l 1
 598 1055 l 1
EndSplineSet
EndChar

StartChar: comma
Encoding: 34 44 22
Width: 700
Flags: W
HStem: 0 334<174.91 370.792>
VStem: 381 143<-87.1428 171>
LayerCount: 2
Fore
SplineSet
221 -193 m 1
 291 -156 381 -72 381 -6 c 0
 381 10 379 39 373 47 c 1
 350 16 309 0 268 0 c 0
 170 0 119 80 119 162 c 0
 119 246 176 334 299 334 c 0
 403 334 524 258 524 84 c 0
 524 -31 465 -166 297 -279 c 0
 291 -281 287 -285 285 -287 c 1
 221 -193 l 1
EndSplineSet
EndChar

StartChar: hyphen
Encoding: 35 45 23
Width: 831
Flags: W
HStem: 520 178<125 707>
VStem: 125 582<520 698>
LayerCount: 2
Fore
SplineSet
707 520 m 1
 125 520 l 1
 125 698 l 1
 707 698 l 1
 707 520 l 1
EndSplineSet
EndChar

StartChar: period
Encoding: 36 46 24
Width: 813
Flags: W
HStem: 0 369<289.225 522.368>
VStem: 221 369<67.6318 301.605>
LayerCount: 2
Fore
SplineSet
590 184 m 0
 590 84 506 0 406 0 c 0
 306 0 221 84 221 184 c 0
 221 286 306 369 406 369 c 0
 506 369 590 286 590 184 c 0
EndSplineSet
EndChar

StartChar: slash
Encoding: 37 47 25
Width: 1191
Flags: W
LayerCount: 2
Fore
SplineSet
819 1620 m 1
 1020 1554 l 1
 442 -174 l 1
 246 -111 l 1
 819 1620 l 1
EndSplineSet
EndChar

StartChar: zero
Encoding: 38 48 26
Width: 1126
Flags: W
HStem: -27 181<445.209 684.15> 936 166<443.445 682.673>
VStem: 68 256<302.035 791.43> 803 256<295.337 790.126>
LayerCount: 2
Fore
SplineSet
68 541 m 0
 68 860 235 1102 563 1102 c 0
 891 1102 1059 860 1059 541 c 0
 1059 226 891 -27 565 -27 c 0
 237 -27 68 222 68 541 c 0
324 549 m 0
 324 352 387 154 565 154 c 0
 743 154 803 348 803 543 c 0
 803 740 741 936 563 936 c 0
 385 936 324 744 324 549 c 0
EndSplineSet
EndChar

StartChar: one
Encoding: 39 49 27
Width: 815
Flags: W
HStem: 0 178<86 315 571 774> 1053 20G<370 571> 1053 20G<370 571>
VStem: 315 256<178 836>
LayerCount: 2
Fore
SplineSet
86 0 m 1xd0
 86 178 l 1
 315 178 l 1
 315 836 l 1
 106 745 l 1
 45 928 l 1
 422 1073 l 1
 571 1073 l 1
 571 178 l 1
 774 178 l 1
 774 0 l 1
 86 0 l 1xd0
EndSplineSet
EndChar

StartChar: two
Encoding: 40 50 28
Width: 1058
Flags: W
HStem: 0 178<449 831> 975 131<373.2 653.355>
VStem: 86 326<651.341 844.839> 735 254<652.793 898.173>
LayerCount: 2
Fore
SplineSet
1032 -164 m 1
 926 -174 l 1
 831 0 l 1
 143 0 l 1
 143 0 125 199 123 199 c 2
 123 199 546 523 571 541 c 0
 688 629 735 686 735 784 c 0
 735 880 649 975 518 975 c 0
 438 975 360 936 309 879 c 1
 352 867 412 826 412 754 c 0
 412 652 344 596 254 596 c 0
 137 596 88 694 86 770 c 1
 86 776 l 2
 86 940 299 1106 561 1106 c 0
 807 1106 989 981 989 739 c 0
 989 620 949 493 707 346 c 1
 449 178 l 1
 995 178 l 1
 1032 -164 l 1
EndSplineSet
EndChar

StartChar: three
Encoding: 41 51 29
Width: 1105
Flags: W
HStem: -305 145<360.399 590.926> 346 168<415.525 528.627> 969 135<342.187 628.584>
VStem: 63 320<654.979 838.807> 90 279<-155.315 15.4774> 715 233<640.816 879.385> 801 256<1.01416 257.609>
LayerCount: 2
Fore
SplineSet
465 -305 m 1xe2
 457 -305 l 1
 446 -305 l 2
 258 -305 98 -227 90 -90 c 1
 90 -10 131 53 231 53 c 0
 319 53 369 -20 369 -86 c 0
 369 -111 362 -142 358 -160 c 1
 608 -160 801 -35 801 121 c 0
 801 123 801 125 801 133 c 0xea
 799 237 729 356 530 356 c 0
 501 356 453 352 418 346 c 1
 389 514 l 1
 582 551 711 615 715 754 c 0
 715 756 715 758 715 760 c 0
 715 871 619 969 500 969 c 0
 428 969 346 940 274 879 c 1
 319 877 383 815 383 745 c 0
 383 659 324 598 238 598 c 0
 127 598 63 688 63 760 c 0
 63 983 254 1104 514 1104 c 0
 807 1104 944 942 948 784 c 0
 948 782 948 778 948 776 c 0xf4
 948 639 868 530 692 485 c 1
 946 458 1057 309 1057 131 c 0
 1057 -113 815 -295 465 -305 c 1xe2
EndSplineSet
EndChar

StartChar: four
Encoding: 42 52 30
Width: 1099
Flags: W
HStem: -387 137<403 637 891 1114> 0 170<299 637 891 1106> 1067 20G<580.407 791.333>
VStem: 637 254<-250 0 170 809>
LayerCount: 2
Fore
SplineSet
1114 -250 m 1
 1114 -387 l 1
 403 -387 l 1
 403 -250 l 1
 637 -250 l 1
 637 0 l 1
 100 0 l 1
 57 164 l 1
 592 1087 l 1
 891 1057 l 1
 891 170 l 1
 1124 170 l 1
 1106 0 l 1
 891 0 l 1
 891 -250 l 1
 1114 -250 l 1
637 170 m 1
 637 809 l 1
 299 170 l 1
 637 170 l 1
EndSplineSet
EndChar

StartChar: five
Encoding: 43 53 31
Width: 1087
Flags: W
HStem: -305 145<358.744 587.338> 453 176<357.199 615.508> 868 205<403 854>
VStem: 90 279<-157.158 16.8248> 784 263<1.01825 301.497>
LayerCount: 2
Fore
SplineSet
453 -305 m 1
 267 -305 90 -229 90 -92 c 0
 90 -12 129 53 229 53 c 0
 317 53 369 -16 369 -86 c 0
 369 -127 364 -137 358 -160 c 1
 598 -160 784 -47 784 141 c 2
 784 160 l 1
 768 385 594 453 375 453 c 0
 332 453 250 444 207 438 c 1
 147 510 l 1
 229 1073 l 1
 913 1073 l 1
 854 868 l 1
 403 868 l 1
 356 621 l 1
 409 627 412 629 459 629 c 0
 850 629 1026 418 1044 201 c 0
 1046 187 1047 172 1047 160 c 0
 1047 -108 832 -293 453 -305 c 1
EndSplineSet
EndChar

StartChar: six
Encoding: 44 54 32
Width: 1353
Flags: W
HStem: -25 203<574.453 874.838> 752 206<558.485 898.346> 1356 153<649.511 874.303>
VStem: 147 297<367.543 605.254 819 1025.08> 827 336<1116.57 1337.18> 991 264<290.94 660.474>
LayerCount: 2
Fore
SplineSet
1255 481 m 0xf4
 1255 223 1059 -25 731 -25 c 2
 715 -25 l 1
 443 -19 147 168 147 668 c 0
 147 1164 362 1509 735 1509 c 0
 968 1509 1163 1397 1163 1229 c 0
 1163 1112 1106 1065 987 1065 c 0
 897 1065 849 1129 831 1190 c 0
 829 1200 827 1211 827 1221 c 0xf8
 827 1270 854 1321 879 1346 c 1
 850 1352 822 1356 797 1356 c 0
 455 1356 446 819 446 819 c 1
 509 907 610 958 784 958 c 1
 1056 952 1255 757 1255 481 c 0xf4
705 178 m 1
 912 178 991 297 991 463 c 0xf4
 991 668 911 752 733 752 c 1
 586 748 499 688 446 606 c 1
 444 590 444 579 444 569 c 2
 444 557 l 2
 444 326 547 182 705 178 c 1
EndSplineSet
EndChar

StartChar: seven
Encoding: 45 55 33
Width: 1042
Flags: W
HStem: 920 153<295 784>
VStem: 98 197<618 920>
LayerCount: 2
Fore
SplineSet
987 909 m 1
 475 -338 l 2
 442 -418 383 -451 326 -451 c 0
 260 -451 201 -403 201 -319 c 0
 201 -286 208 -248 231 -203 c 2
 784 920 l 1
 295 920 l 1
 295 618 l 1
 98 618 l 1
 98 1073 l 1
 920 1073 l 1
 987 909 l 1
EndSplineSet
EndChar

StartChar: eight
Encoding: 46 56 34
Width: 1286
Flags: W
HStem: -27 174<454.735 823.13> 1362 147<475.941 787.408>
VStem: 86 274<233.412 509.104> 160 233<1043.58 1283.03> 881 247<1011.43 1278.16> 915 279<230.172 470.735>
LayerCount: 2
Fore
SplineSet
1194 358 m 1xd4
 1194 350 l 2
 1194 121 956 -27 639 -27 c 0
 326 -27 86 115 86 332 c 0
 86 694 522 770 524 770 c 2
 682 682 l 1
 680 680 360 643 360 375 c 0
 360 221 459 147 639 147 c 0
 793 147 915 211 915 350 c 0xe4
 915 672 160 706 160 1163 c 0
 160 1374 352 1509 645 1509 c 0
 928 1509 1128 1344 1128 1143 c 0
 1128 834 709 735 709 735 c 1
 584 846 l 1
 584 846 881 909 881 1153 c 0xd8
 881 1272 789 1362 621 1362 c 0
 476 1362 393 1274 393 1153 c 0
 393 862 1182 800 1194 358 c 1xd4
EndSplineSet
EndChar

StartChar: nine
Encoding: 47 57 35
Width: 1349
Flags: W
HStem: -29 185<470.403 731.17> 565 207<472.977 824.654> 1305 202<498.833 795.752>
VStem: 115 264<871.89 1194.12> 174 334<190.952 411.375> 926 297<877.746 1115.46>
LayerCount: 2
Fore
SplineSet
379 1038 m 2xf4
 379 1038 379 1036 379 1034 c 0
 381 876 459 772 637 772 c 1
 784 776 891 840 924 877 c 1
 926 893 926 903 926 913 c 2
 926 926 l 2
 926 1157 824 1301 666 1305 c 1
 461 1305 379 1177 379 1038 c 2xf4
596 -29 m 0
 360 -29 174 112 174 272 c 0
 174 389 231 463 350 463 c 0
 454 463 508 379 508 307 c 0xec
 508 250 489 210 469 190 c 1
 520 165 565 156 606 156 c 0
 891 156 924 694 924 694 c 1
 861 606 760 565 586 565 c 0
 338 565 129 740 115 1016 c 1
 115 1040 l 2
 115 1288 322 1507 639 1507 c 2
 655 1507 l 1
 927 1501 1223 1315 1223 815 c 0
 1223 301 971 -29 596 -29 c 0
EndSplineSet
EndChar

StartChar: colon
Encoding: 48 58 36
Width: 813
Flags: W
HStem: 0 369<289.225 522.368> 705 368<289.225 522.368>
VStem: 221 369<67.6318 301.605 772.632 1006.2>
LayerCount: 2
Fore
SplineSet
590 889 m 0
 590 789 506 705 406 705 c 0
 306 705 221 789 221 889 c 0
 221 991 306 1073 406 1073 c 0
 506 1073 590 991 590 889 c 0
590 184 m 0
 590 84 506 0 406 0 c 0
 306 0 221 84 221 184 c 0
 221 286 306 369 406 369 c 0
 506 369 590 286 590 184 c 0
EndSplineSet
EndChar

StartChar: semicolon
Encoding: 49 59 37
Width: 813
Flags: W
HStem: 0 305<277.97 464.049> 705 368<289.225 522.368>
VStem: 231 373<46.2078 223.155 790.543 988.342> 473 131<-86.1948 156>
LayerCount: 2
Fore
SplineSet
590 889 m 0xc0
 590 789 506 705 406 705 c 0
 306 705 221 789 221 889 c 0
 221 991 306 1073 406 1073 c 0
 506 1073 590 991 590 889 c 0xc0
326 -178 m 1
 389 -143 473 -67 473 -6 c 0xd0
 473 8 471 35 465 43 c 1
 445 14 406 0 369 0 c 0
 279 0 231 71 231 147 c 0
 231 225 284 305 397 305 c 0
 493 305 604 236 604 76 c 0xe0
 604 -28 549 -154 395 -256 c 0
 389 -258 385 -262 383 -264 c 1
 326 -178 l 1
EndSplineSet
EndChar

StartChar: equal
Encoding: 51 61 38
Width: 927
Flags: W
HStem: 350 148<96 831> 727 147<96 831>
LayerCount: 2
Fore
SplineSet
96 498 m 1
 831 498 l 1
 831 350 l 1
 96 350 l 1
 96 498 l 1
96 874 m 1
 831 874 l 1
 831 727 l 1
 96 727 l 1
 96 874 l 1
EndSplineSet
EndChar

StartChar: greater
Encoding: 52 62 39
Width: 921
Flags: W
LayerCount: 2
Fore
SplineSet
891 801 m 1
 891 604 l 1
 90 258 l 1
 90 449 l 1
 668 715 l 1
 90 989 l 1
 90 1176 l 1
 891 801 l 1
EndSplineSet
EndChar

StartChar: question
Encoding: 53 63 40
Width: 1089
Flags: W
HStem: -20 329<381.958 601.701> 930 315<274 391.538> 1360 149<336.256 652.372>
VStem: 82 358<998.955 1193.78> 328 329<34.2051 253.948> 729 293<981.685 1284.22>
LayerCount: 2
Fore
SplineSet
530 426 m 1xf4
 444 426 l 1
 444 788 729 912 729 1135 c 0
 729 1323 600 1360 494 1360 c 0
 412 1360 311 1329 274 1245 c 1
 333 1245 440 1215 440 1098 c 0
 440 1000 373 930 279 930 c 0
 154 930 86 1028 82 1108 c 1
 82 1128 l 2
 82 1372 318 1509 547 1509 c 0
 744 1509 1016 1454 1022 1128 c 0
 1022 1126 1022 1124 1022 1122 c 0
 1022 829 610 670 530 426 c 1xf4
657 143 m 0xec
 657 55 580 -20 492 -20 c 0
 402 -20 328 55 328 143 c 0
 328 233 402 309 492 309 c 0
 580 309 657 233 657 143 c 0xec
EndSplineSet
EndChar

StartChar: at
Encoding: 54 64 41
Width: 1734
Flags: W
HStem: -31 133<613.468 1155.33> 285 92<1181.5 1344.83> 303 135<651.877 825.91> 1075 137<789.796 989.253> 1401 135<707.138 1150.41>
VStem: 59 189<441.625 921.109> 1008 159<498 721> 1493 182<579.824 1044.84>
LayerCount: 2
Fore
SplineSet
616 647 m 0xbf
 606 491 670 438 752 438 c 0
 852 438 985 623 1008 721 c 0
 1008 723 1049 947 1051 961 c 1
 1051 961 973 1075 901 1075 c 0
 747 1075 628 842 616 647 c 0xbf
1493 797 m 0
 1493 1131 1274 1401 940 1401 c 0
 526 1401 248 1056 248 659 c 0
 248 358 467 102 879 102 c 0
 1016 102 1212 141 1329 213 c 1
 1391 113 l 1
 1254 23 1026 -31 860 -31 c 0
 360 -31 59 287 59 686 c 0
 59 1149 434 1536 932 1536 c 0
 1428 1536 1675 1149 1675 795 c 0
 1675 527 1489 285 1227 285 c 0xdf
 1086 285 1014 369 1004 547 c 1
 941 402 801 309 686 303 c 0xbf
 565 297 420 402 420 625 c 0
 420 895 649 1212 913 1212 c 0
 968 1212 1090 1063 1090 1063 c 1
 1090 1063 1116 1138 1124 1163 c 1
 1305 1163 l 1
 1299 1126 1167 543 1167 498 c 0
 1167 424 1188 377 1251 377 c 0xdf
 1327 377 1493 506 1493 797 c 0
EndSplineSet
EndChar

StartChar: A
Encoding: 55 65 42
Width: 1722
Flags: W
HStem: 0 178<18 236 440 670 958 1182 1511 1704> 508 156<602 1030> 1500 20G<698.01 1065.74>
LayerCount: 2
Fore
SplineSet
670 178 m 1
 670 0 l 1
 18 0 l 1
 18 178 l 1
 236 178 l 1
 705 1520 l 1
 1059 1520 l 1
 1511 178 l 1
 1704 178 l 1
 1704 0 l 1
 958 0 l 1
 958 178 l 1
 1182 178 l 1
 1079 508 l 1
 551 508 l 1
 440 178 l 1
 670 178 l 1
1030 664 m 1
 823 1327 l 1
 602 664 l 1
 1030 664 l 1
EndSplineSet
EndChar

StartChar: B
Encoding: 56 66 43
Width: 1523
Flags: W
HStem: 0 180<41 285 582 1009.81> 705 184<582 962.358> 1335 185<41 285 582 947.633>
VStem: 285 297<180 705 889 1335> 1130 318<288.651 585.245>
LayerCount: 2
Fore
SplineSet
780 0 m 2
 41 0 l 1
 41 180 l 1
 285 180 l 1
 285 1335 l 1
 41 1335 l 1
 41 1520 l 1
 780 1520 l 2
 1011 1520 1395 1454 1366 1106 c 0
 1354 956 1256 858 1090 811 c 1
 1301 756 1448 637 1448 424 c 0
 1448 33 1044 0 780 0 c 2
582 180 m 1
 881 180 1130 168 1130 438 c 0
 1130 651 946 705 743 705 c 2
 582 705 l 1
 582 180 l 1
582 889 m 1
 743 889 l 2
 905 889 1049 922 1049 1098 c 0
 1049 1348 838 1333 582 1335 c 1
 582 889 l 1
EndSplineSet
EndChar

StartChar: C
Encoding: 57 67 44
Width: 1470
Flags: W
HStem: -27 211<693.625 1057.83> 903 320<1059.22 1171> 1358 192<689.892 1066.16>
VStem: 90 338<506.39 1030.47> 1010 366<971.916 1173.05> 1262 184<416.105 541>
LayerCount: 2
Fore
SplineSet
1446 541 m 1xf4
 1395 191 1182 -27 801 -27 c 0
 357 -27 90 348 90 776 c 0
 90 1173 389 1550 829 1550 c 0
 1079 1550 1376 1401 1376 1090 c 0
 1376 1006 1309 903 1180 903 c 0
 1086 903 1016 955 1010 1049 c 0
 1010 1053 1010 1059 1010 1063 c 0xf8
 1010 1178 1108 1223 1171 1223 c 1
 1116 1305 1026 1356 858 1358 c 0
 561 1362 428 1048 428 772 c 0
 428 481 573 184 872 184 c 0
 1130 184 1219 375 1262 541 c 1
 1446 541 l 1xf4
EndSplineSet
EndChar

StartChar: D
Encoding: 58 68 45
Width: 1683
Flags: W
HStem: 0 178<41 285 582 921.06> 1335 185<41 285 582 924.417>
VStem: 285 297<178 1333> 1276 317<497.874 1003.32>
LayerCount: 2
Fore
SplineSet
41 1335 m 1
 41 1520 l 1
 528 1520 l 2
 1042 1520 1593 1418 1593 750 c 0
 1593 154 1119 0 582 0 c 2
 41 0 l 1
 41 178 l 1
 285 178 l 1
 285 1335 l 1
 41 1335 l 1
582 178 m 1
 930 178 1276 258 1276 741 c 0
 1276 1265 926 1333 582 1333 c 1
 582 178 l 1
EndSplineSet
EndChar

StartChar: E
Encoding: 59 69 46
Width: 1581
Flags: W
HStem: 0 178<41 285 582 1245> 698 156<582 879> 1335 185<41 285 582 1245>
VStem: 285 297<178 698 854 1335> 879 174<444 698 854 1059> 1245 246<178 571 940 1335>
LayerCount: 2
Fore
SplineSet
41 0 m 1
 41 178 l 1
 285 178 l 1
 285 1335 l 1
 41 1335 l 1
 41 1520 l 1
 1491 1520 l 1
 1491 940 l 1
 1245 940 l 1
 1245 1335 l 1
 582 1335 l 1
 582 854 l 1
 879 854 l 1
 879 1059 l 1
 1053 1059 l 1
 1053 444 l 1
 879 444 l 1
 879 698 l 1
 582 698 l 1
 582 178 l 1
 1245 178 l 1
 1245 571 l 1
 1491 571 l 1
 1491 0 l 1
 41 0 l 1
EndSplineSet
EndChar

StartChar: F
Encoding: 60 70 47
Width: 1466
Flags: W
HStem: 0 178<41 285 582 842> 729 156<582 905> 1076 20G<905 1079> 1335 185<41 285 582 1206>
VStem: 285 297<178 729 885 1335> 905 174<475 729 885 1096> 1206 246<950 1335>
LayerCount: 2
Fore
SplineSet
41 0 m 1
 41 178 l 1
 285 178 l 1
 285 1335 l 1
 41 1335 l 1
 41 1520 l 1
 1452 1520 l 1
 1452 950 l 1
 1206 950 l 1
 1206 1335 l 1
 582 1335 l 1
 582 885 l 1
 905 885 l 1
 905 1096 l 1
 1079 1096 l 1
 1079 475 l 1
 905 475 l 1
 905 729 l 1
 582 729 l 1
 582 178 l 1
 842 178 l 1
 842 0 l 1
 41 0 l 1
EndSplineSet
EndChar

StartChar: G
Encoding: 61 71 48
Width: 1673
Flags: W
HStem: -27 211<679.557 1028.87> 608 152<922 1190 1466 1661> 1358 192<742.056 1141.71>
VStem: 90 338<485.836 1017.77> 1104 366<1031.92 1234.03> 1190 276<333.499 608> 1346 120<12 56.8512>
LayerCount: 2
Fore
SplineSet
1276 231 m 1xf2
 1194 67 1065 -27 829 -27 c 2
 807 -27 l 1
 332 -21 90 379 90 758 c 0
 90 1161 387 1546 868 1550 c 0
 870 1550 872 1550 874 1550 c 0
 1138 1550 1470 1419 1470 1151 c 0
 1470 1067 1409 967 1280 967 c 0
 1186 967 1110 1024 1104 1118 c 0
 1104 1122 1104 1129 1104 1133 c 0xf8
 1104 1203 1163 1268 1210 1284 c 1
 1132 1331 1030 1358 944 1358 c 0
 940 1358 938 1358 934 1358 c 0
 639 1352 428 1118 428 766 c 0
 428 449 561 184 864 184 c 0
 868 184 875 184 879 184 c 0
 1043 188 1170 315 1190 446 c 1
 1190 608 l 1
 922 608 l 1
 922 760 l 1
 1661 760 l 1
 1661 608 l 1
 1466 608 l 1xf4
 1466 12 l 1
 1346 12 l 1
 1276 231 l 1xf2
EndSplineSet
EndChar

StartChar: H
Encoding: 62 72 49
Width: 1744
Flags: W
HStem: 0 178<41 285 582 811 932 1163 1460 1704> 719 155<582 1163> 1335 185<41 285 582 811 932 1163 1460 1704>
VStem: 285 297<178 719 874 1335> 1163 297<178 719 874 1335>
LayerCount: 2
Fore
SplineSet
1460 178 m 1
 1704 178 l 1
 1704 0 l 1
 932 0 l 1
 932 178 l 1
 1163 178 l 1
 1163 719 l 1
 582 719 l 1
 582 178 l 1
 811 178 l 1
 811 0 l 1
 41 0 l 1
 41 178 l 1
 285 178 l 1
 285 1335 l 1
 41 1335 l 1
 41 1520 l 1
 811 1520 l 1
 811 1335 l 1
 582 1335 l 1
 582 874 l 1
 1163 874 l 1
 1163 1335 l 1
 932 1335 l 1
 932 1520 l 1
 1704 1520 l 1
 1704 1335 l 1
 1460 1335 l 1
 1460 178 l 1
EndSplineSet
EndChar

StartChar: I
Encoding: 63 73 50
Width: 872
Flags: W
HStem: 0 178<51 295 592 821> 1335 185<51 295 592 821>
VStem: 295 297<178 1335>
LayerCount: 2
Fore
SplineSet
592 178 m 1
 821 178 l 1
 821 0 l 1
 51 0 l 1
 51 178 l 1
 295 178 l 1
 295 1335 l 1
 51 1335 l 1
 51 1520 l 1
 821 1520 l 1
 821 1335 l 1
 592 1335 l 1
 592 178 l 1
EndSplineSet
EndChar

StartChar: J
Encoding: 64 74 51
Width: 1196
Flags: W
HStem: -201 154<324.932 561.821> 1335 185<360 647 944 1163>
VStem: 33 268<-3.77529 241> 647 297<107.021 1335>
LayerCount: 2
Fore
SplineSet
449 -201 m 0
 197 -201 33 -35 33 164 c 0
 33 318 140 389 240 389 c 0
 330 389 418 330 418 219 c 0
 418 82 301 96 301 45 c 0
 301 -6 370 -47 438 -47 c 0
 643 -47 647 147 647 389 c 2
 647 1335 l 1
 360 1335 l 1
 360 1520 l 1
 1163 1520 l 1
 1163 1335 l 2
 1163 1333 944 1335 944 1335 c 1
 944 496 l 2
 944 242 943 -201 449 -201 c 0
EndSplineSet
EndChar

StartChar: K
Encoding: 65 75 52
Width: 1738
Flags: W
HStem: 0 178<41 285 582 793 963 1165 1505 1718> 1335 185<41 285 582 793 971 1198 1481 1694>
VStem: 285 297<178 530 756 1335>
LayerCount: 2
Fore
SplineSet
963 0 m 1
 963 178 l 1
 1165 178 l 1
 791 711 l 1
 582 530 l 1
 582 178 l 1
 793 178 l 1
 793 0 l 1
 41 0 l 1
 41 178 l 1
 285 178 l 1
 285 1335 l 1
 41 1335 l 1
 41 1520 l 1
 793 1520 l 1
 793 1335 l 1
 582 1335 l 1
 582 756 l 1
 596 760 660 830 670 838 c 0
 733 899 1198 1335 1198 1335 c 1
 971 1335 l 1
 971 1520 l 1
 1694 1520 l 1
 1694 1335 l 1
 1481 1335 l 1
 989 852 l 1
 1505 178 l 1
 1718 178 l 1
 1718 0 l 1
 963 0 l 1
EndSplineSet
EndChar

StartChar: L
Encoding: 66 76 53
Width: 1374
Flags: W
HStem: 0 178<41 268.314> 1335 185<41 285 582 840>
VStem: 285 297<178 1335> 1128 218<178 666>
LayerCount: 2
Fore
SplineSet
1346 0 m 2
 1346 -2 41 0 41 0 c 1
 41 178 l 1
 285 178 l 1
 285 1335 l 1
 41 1335 l 1
 41 1520 l 1
 840 1520 l 1
 840 1335 l 1
 582 1335 l 1
 582 178 l 1
 1128 178 l 1
 1128 666 l 1
 1346 666 l 1
 1346 0 l 2
EndSplineSet
EndChar

StartChar: M
Encoding: 67 77 54
Width: 2156
Flags: W
HStem: 0 178<59 322 547 799 1307 1526 1821 2116> 1335 185<41 322 1821 2101>
VStem: 322 225<178 1323> 1526 295<178 1307>
LayerCount: 2
Fore
SplineSet
799 0 m 1
 59 0 l 1
 59 178 l 1
 322 178 l 1
 322 1335 l 1
 41 1335 l 1
 41 1520 l 1
 778 1520 l 1
 1092 637 l 1
 1384 1520 l 1
 2101 1520 l 1
 2101 1335 l 1
 1821 1335 l 1
 1821 178 l 1
 2116 178 l 1
 2116 0 l 1
 1307 0 l 1
 1307 178 l 1
 1526 178 l 1
 1526 1307 l 1
 1137 186 l 2
 1121 141 1092 123 1065 123 c 0
 1030 123 997 149 985 180 c 2
 547 1323 l 1
 547 178 l 1
 799 178 l 1
 799 0 l 1
EndSplineSet
EndChar

StartChar: N
Encoding: 68 78 55
Width: 1763
Flags: W
HStem: 0 178<41 283 492 721> 1335 185<41 283 1047 1300 1505 1735>
VStem: 283 209<178 1233> 1300 205<446 1335>
LayerCount: 2
Fore
SplineSet
721 178 m 1
 721 0 l 1
 41 0 l 1
 41 178 l 1
 283 178 l 1
 283 1335 l 1
 41 1335 l 1
 41 1520 l 1
 647 1520 l 1
 1300 446 l 1
 1300 1335 l 1
 1047 1335 l 1
 1047 1520 l 1
 1735 1520 l 1
 1735 1335 l 1
 1505 1335 l 1
 1505 0 l 1
 1239 0 l 1
 492 1233 l 1
 492 178 l 1
 721 178 l 1
EndSplineSet
EndChar

StartChar: O
Encoding: 69 79 56
Width: 1613
Flags: W
HStem: -27 195<657.896 955.844> 1356 194<657.896 955.844>
VStem: 90 326<489.094 1034.42> 1198 326<487.599 1031.83>
LayerCount: 2
Fore
SplineSet
807 1356 m 1
 553 1356 416 1049 416 762 c 0
 416 475 553 168 807 168 c 0
 1061 168 1198 471 1198 758 c 0
 1198 1043 1061 1350 807 1356 c 1
807 -27 m 0
 328 -27 90 377 90 762 c 0
 90 1145 328 1550 807 1550 c 0
 1284 1550 1524 1145 1524 762 c 0
 1524 377 1284 -27 807 -27 c 0
EndSplineSet
EndChar

StartChar: P
Encoding: 70 80 57
Width: 1411
Flags: W
HStem: 0 178<41 285 582 831> 670 161<582 959.378> 1335 185<41 285 582 967.5>
VStem: 285 297<178 670 831 1335> 1069 317<930.504 1240.16>
LayerCount: 2
Fore
SplineSet
41 1335 m 1
 41 1520 l 1
 770 1520 l 2
 1010 1520 1386 1483 1386 1092 c 0
 1386 699 1016 670 674 670 c 2
 582 670 l 1
 582 178 l 1
 831 178 l 1
 831 0 l 1
 41 0 l 1
 41 178 l 1
 285 178 l 1
 285 1335 l 1
 41 1335 l 1
692 831 m 2
 885 831 1069 852 1069 1083 c 0
 1069 1355 850 1333 582 1335 c 1
 582 831 l 1
 692 831 l 2
EndSplineSet
EndChar

StartChar: Q
Encoding: 71 81 58
Width: 1691
Flags: W
HStem: -158 246<1335.34 1539.25> -27 195<656.049 952.847> 451 155<604.81 821.471> 1356 194<657.896 955.844>
VStem: 90 326<487.184 1034.42> 1198 326<481.957 1031.83> 1587 121<136.264 369>
LayerCount: 2
Fore
SplineSet
1708 305 m 2xbe
 1708 -70 1561 -158 1368 -158 c 0xbe
 1225 -158 1135 -82 1063 18 c 1
 987 -11 901 -27 807 -27 c 0x7e
 328 -27 90 377 90 762 c 0
 90 1145 328 1550 807 1550 c 0
 1284 1550 1524 1145 1524 762 c 0
 1524 545 1448 324 1296 170 c 1
 1341 121 1391 88 1450 88 c 0
 1530 88 1587 162 1587 305 c 2
 1587 369 l 1
 1708 369 l 1
 1708 305 l 2xbe
1122 401 m 1
 1171 505 1198 633 1198 758 c 0
 1198 1043 1061 1350 807 1356 c 1
 553 1356 416 1049 416 762 c 0
 416 653 436 540 473 444 c 1
 508 503 586 596 733 606 c 1
 762 606 l 2
 930 606 1036 510 1122 401 c 1
807 168 m 0x7e
 862 168 911 182 954 207 c 1
 886 336 826 451 715 451 c 0
 623 451 564 369 537 326 c 1
 603 232 692 168 807 168 c 0x7e
EndSplineSet
EndChar

StartChar: R
Encoding: 72 82 59
Width: 1601
Flags: W
HStem: -31 185<1319.93 1446.34> 0 178<41 285 582 811> 696 164<582 915.836> 1335 185<41 285 582 994.378>
VStem: 285 297<178 692 860 1333> 1094 325<944.163 1250.84> 1479 133<179.938 520>
LayerCount: 2
Fore
SplineSet
1325 -31 m 0xbe
 1323 -31 1319 -31 1317 -31 c 0xbe
 1155 -29 996 16 971 422 c 0
 959 619 901 692 868 696 c 0
 860 696 854 694 582 692 c 1
 582 178 l 1
 811 178 l 1
 811 0 l 1
 41 0 l 1
 41 178 l 1
 285 178 l 1x7e
 285 1335 l 1
 41 1335 l 1
 41 1520 l 1
 713 1520 l 2
 1012 1520 1419 1503 1419 1102 c 0
 1419 854 1285 766 1092 723 c 1
 1381 592 1226 154 1378 154 c 0
 1464 154 1479 264 1479 389 c 2
 1479 520 l 1
 1612 520 l 1
 1612 391 l 1
 1604 47 1509 -31 1325 -31 c 0xbe
582 860 m 1
 930 860 1094 860 1094 1102 c 0
 1094 1309 966 1333 700 1333 c 2
 582 1333 l 1
 582 860 l 1
EndSplineSet
EndChar

StartChar: S
Encoding: 73 83 60
Width: 1376
Flags: W
HStem: -27 174<443.088 910.647> 1362 188<504.635 969.839>
VStem: 90 387<274.656 497.924> 106 293<1068.78 1276.03> 887 354<1056.44 1273.7> 1022 285<242.244 467.298>
LayerCount: 2
Fore
SplineSet
90 371 m 0xe4
 90 461 148 567 287 567 c 0
 385 567 477 491 477 393 c 0
 477 313 418 233 367 223 c 1
 465 172 592 147 692 147 c 0
 901 147 1022 231 1022 352 c 0xe4
 1022 461 969 522 629 645 c 0
 221 792 110 921 106 1124 c 0
 106 1126 106 1128 106 1130 c 0
 106 1366 350 1550 682 1550 c 0
 905 1550 1241 1471 1241 1188 c 0
 1241 1184 1241 1182 1241 1178 c 0
 1239 1094 1200 1004 1071 1004 c 0
 973 1004 887 1061 887 1159 c 0
 887 1233 936 1304 979 1327 c 1
 926 1350 848 1362 766 1362 c 0
 594 1362 411 1330 399 1180 c 1xd8
 399 1088 438 1030 717 924 c 0
 1163 754 1293 674 1307 422 c 1
 1307 406 l 2
 1307 177 1127 -27 717 -27 c 0
 404 -27 90 95 90 371 c 0xe4
EndSplineSet
EndChar

StartChar: T
Encoding: 74 84 61
Width: 1538
Flags: W
HStem: 0 178<377 621 918 1147> 928 592<55 283 1255 1483> 1360 160<283 621 918 1255>
VStem: 55 228<928 1360> 621 297<178 1360> 1255 228<928 1360>
LayerCount: 2
Fore
SplineSet
377 0 m 1xbc
 377 178 l 1
 621 178 l 1
 621 1360 l 1
 283 1360 l 1xbc
 283 928 l 1
 55 928 l 1
 55 1520 l 1
 1483 1520 l 1
 1483 928 l 1
 1255 928 l 1xdc
 1255 1360 l 1
 918 1360 l 1
 918 178 l 1
 1147 178 l 1
 1147 0 l 1
 377 0 l 1xbc
EndSplineSet
EndChar

StartChar: U
Encoding: 75 85 62
Width: 1660
Flags: W
HStem: -27 217<676.038 1064.45> 1335 185<18 254 547 776 967 1210 1413 1642>
VStem: 254 293<324.849 1335> 1210 203<332.824 1335>
LayerCount: 2
Fore
SplineSet
838 -27 m 0
 430 -27 254 205 254 516 c 2
 254 1335 l 1
 18 1335 l 1
 18 1520 l 1
 776 1520 l 1
 776 1335 l 1
 547 1335 l 1
 547 528 l 2
 547 329 616 190 860 190 c 0
 1085 190 1210 291 1210 535 c 2
 1210 1335 l 1
 967 1335 l 1
 967 1520 l 1
 1642 1520 l 1
 1642 1335 l 1
 1413 1335 l 1
 1413 547 l 2
 1413 221 1291 -27 838 -27 c 0
EndSplineSet
EndChar

StartChar: V
Encoding: 76 86 63
Width: 1724
Flags: W
HStem: 1335 185<16 246 584 809 938 1223 1479 1708>
LayerCount: 2
Fore
SplineSet
678 106 m 1
 246 1335 l 1
 16 1335 l 1
 16 1520 l 1
 809 1520 l 1
 809 1335 l 1
 584 1335 l 1
 905 307 l 1
 1223 1335 l 1
 938 1335 l 1
 938 1520 l 1
 1708 1520 l 1
 1708 1335 l 1
 1479 1335 l 1
 1042 106 l 2
 1007 12 932 -39 856 -39 c 0
 784 -39 715 8 678 106 c 1
EndSplineSet
EndChar

StartChar: W
Encoding: 77 87 64
Width: 2281
Flags: W
HStem: 1335 185<-6 203 518 698 1606 1849 2064 2271>
LayerCount: 2
Fore
SplineSet
1542 -33 m 0
 1476 -33 1401 0 1374 94 c 2
 1133 928 l 1
 881 94 l 2
 852 2 775 -33 707 -33 c 0
 641 -33 572 -2 545 94 c 2
 203 1335 l 1
 -6 1335 l 1
 -6 1520 l 1
 698 1520 l 1
 698 1335 l 1
 518 1335 l 1
 764 328 l 1
 1040 1294 l 1
 1309 1294 l 1
 1599 328 l 1
 1849 1335 l 1
 1606 1335 l 1
 1606 1520 l 1
 2271 1520 l 1
 2271 1335 l 1
 2064 1335 l 1
 1708 94 l 2
 1681 0 1610 -33 1542 -33 c 0
EndSplineSet
EndChar

StartChar: X
Encoding: 78 88 65
Width: 1796
Flags: W
HStem: 0 178<12 256 512 782 932 1159 1540 1784> 1335 185<78 287 668 848 975 1219 1475 1704>
LayerCount: 2
Fore
SplineSet
782 0 m 1
 12 0 l 1
 12 178 l 1
 256 178 l 1
 729 748 l 1
 287 1335 l 1
 78 1335 l 1
 78 1520 l 1
 848 1520 l 1
 848 1335 l 1
 668 1335 l 1
 930 979 l 1
 1219 1335 l 1
 975 1335 l 1
 975 1520 l 1
 1704 1520 l 1
 1704 1335 l 1
 1475 1335 l 1
 1051 823 l 1
 1540 178 l 1
 1784 178 l 1
 1784 0 l 1
 932 0 l 1
 932 178 l 1
 1159 178 l 1
 852 592 l 1
 512 178 l 1
 782 178 l 1
 782 0 l 1
EndSplineSet
EndChar

StartChar: Y
Encoding: 79 89 66
Width: 1681
Flags: W
HStem: 0 178<430 674 971 1200> 1335 185<12 256 553 776 981 1206 1421 1655>
VStem: 674 297<178 653>
LayerCount: 2
Fore
SplineSet
430 0 m 1
 430 178 l 1
 674 178 l 1
 674 657 l 1
 256 1335 l 1
 12 1335 l 1
 12 1520 l 1
 776 1520 l 1
 776 1335 l 1
 553 1335 l 1
 870 813 l 1
 1206 1335 l 1
 981 1335 l 1
 981 1520 l 1
 1655 1520 l 1
 1655 1335 l 1
 1421 1335 l 1
 971 653 l 1
 971 178 l 1
 1200 178 l 1
 1200 0 l 1
 430 0 l 1
EndSplineSet
EndChar

StartChar: Z
Encoding: 80 90 67
Width: 1431
Flags: W
HStem: 0 178<465 1135> 1500 20G<117 1316.35>
VStem: 117 217<881 1341> 1135 217<178 647>
LayerCount: 2
Fore
SplineSet
997 1341 m 1
 334 1341 l 1
 334 881 l 1
 117 881 l 1
 117 1520 l 2
 117 1522 1313 1520 1313 1520 c 1
 1343 1341 l 1
 465 178 l 1
 1135 178 l 1
 1135 647 l 1
 1352 647 l 1
 1352 0 l 1
 135 0 l 1
 106 178 l 1
 997 1341 l 1
EndSplineSet
EndChar

StartChar: bracketleft
Encoding: 81 91 68
Width: 1423
Flags: W
HStem: -248 152<590 826.777> 1460 158<590 826.777>
VStem: 334 256<-96 1460>
LayerCount: 2
Fore
SplineSet
1079 -248 m 2
 1079 -250 334 -248 334 -248 c 1
 334 1618 l 1
 334 1618 1079 1620 1079 1618 c 2
 1079 1460 l 1
 590 1460 l 1
 590 -96 l 1
 1079 -96 l 1
 1079 -248 l 2
EndSplineSet
EndChar

StartChar: backslash
Encoding: 82 92 69
Width: 1191
Flags: W
VStem: 315 537
LayerCount: 2
Fore
SplineSet
852 -160 m 1
 645 -199 l 1
 315 1593 l 1
 518 1634 l 1
 852 -160 l 1
EndSplineSet
EndChar

StartChar: bracketright
Encoding: 83 93 70
Width: 1423
Flags: W
HStem: -256 158<580.223 817> 1458 154<580.223 817>
VStem: 817 256<-98 1458>
LayerCount: 2
Fore
SplineSet
328 1610 m 2
 328 1612 1073 1612 1073 1612 c 1
 1073 -256 l 1
 1073 -256 328 -258 328 -256 c 2
 328 -98 l 1
 817 -98 l 1
 817 1458 l 1
 328 1458 l 1
 328 1610 l 2
EndSplineSet
EndChar

StartChar: asciicircum
Encoding: 84 94 71
Width: 921
Flags: W
LayerCount: 2
Fore
SplineSet
401 1178 m 1
 598 1178 l 1
 971 315 l 1
 760 315 l 1
 498 975 l 1
 219 315 l 1
 12 315 l 1
 401 1178 l 1
EndSplineSet
EndChar

StartChar: underscore
Encoding: 85 95 72
Width: 851
Flags: W
HStem: -141 149<-8 860>
LayerCount: 2
Fore
SplineSet
860 -141 m 1
 -8 -141 l 1
 -8 8 l 1
 860 8 l 1
 860 -141 l 1
EndSplineSet
EndChar

StartChar: a
Encoding: 87 97 73
Width: 1318
Flags: W
HStem: -27 158<347.023 558.269 1014.05 1146.25> 975 129<360.2 660.005>
VStem: 88 244<142.346 337.989> 123 328<702 908.85> 717 262<269.096 557 656.861 917.953> 1176 133<165.789 446>
LayerCount: 2
Fore
SplineSet
1028 -29 m 0xdc
 1024 -29 1022 -29 1020 -29 c 0
 893 -27 776 20 735 170 c 1
 665 53 531 -27 371 -27 c 0
 203 -27 88 64 88 238 c 0xec
 88 574 723 508 723 764 c 0
 723 926 633 975 514 975 c 0
 461 975 405 965 358 942 c 1
 403 936 451 862 451 805 c 0
 451 803 451 801 451 797 c 0
 451 717 387 653 287 653 c 0
 183 653 123 727 123 823 c 2
 123 823 123 825 123 827 c 0
 125 997 334 1104 537 1104 c 0
 750 1104 979 1024 979 743 c 2
 979 317 l 2
 979 249 987 141 1079 141 c 0
 1165 141 1176 235 1176 313 c 2
 1176 446 l 1
 1309 446 l 1
 1309 307 l 2
 1309 35 1175 -29 1028 -29 c 0xdc
424 131 m 0
 522 131 717 252 717 375 c 2
 717 557 l 1
 481 369 332 385 332 244 c 0
 332 183 356 131 424 131 c 0
EndSplineSet
EndChar

StartChar: b
Encoding: 88 98 74
Width: 1208
Flags: W
HStem: -27 181<509.921 755.995> 0 21G<137 279.873> 936 166<520.882 752.743> 1356 164<-74 137>
VStem: 137 256<296.976 802.81 942 1356> 870 271<298.339 790.997>
LayerCount: 2
Fore
SplineSet
696 -27 m 0xbc
 563 -27 432 37 348 158 c 1
 270 0 l 1
 137 0 l 1x7c
 137 1356 l 1
 -74 1356 l 1
 -74 1520 l 1
 393 1520 l 1
 393 942 l 1
 461 1042 559 1094 678 1102 c 1
 705 1102 l 2
 965 1102 1141 846 1141 537 c 0
 1141 218 962 -27 696 -27 c 0xbc
637 936 m 0
 451 936 393 750 393 584 c 0
 393 314 469 154 635 154 c 0xbc
 807 154 870 352 870 524 c 0
 870 702 830 936 637 936 c 0
EndSplineSet
EndChar

StartChar: c
Encoding: 89 99 75
Width: 1124
Flags: W
HStem: -27 189<503.937 816.377> 606 256<781.955 885> 969 135<512.164 820.631>
VStem: 68 278<341.297 759.324> 750 305<653.461 824.197>
LayerCount: 2
Fore
SplineSet
68 516 m 0
 68 835 267 1104 625 1104 c 0
 813 1104 1055 1014 1055 756 c 0
 1055 688 997 606 891 606 c 0
 811 606 756 649 750 723 c 0
 750 727 750 731 750 735 c 0
 750 825 832 862 885 862 c 1
 844 928 768 969 659 969 c 0
 458 969 346 776 346 573 c 0
 346 337 447 162 670 162 c 0
 842 162 919 311 950 385 c 1
 1081 336 l 1
 1032 121 842 -27 596 -27 c 0
 313 -27 68 186 68 516 c 0
EndSplineSet
EndChar

StartChar: d
Encoding: 90 100 76
Width: 1245
Flags: W
HStem: -27 181<454.014 671.321> 0 172<1073 1229> 936 166<452.803 694.531> 1356 164<604 817>
VStem: 70 270<298.339 787.05> 817 256<172 188 296.976 802.81 942 1356>
LayerCount: 2
Fore
SplineSet
514 -27 m 0xbc
 248 -27 70 218 70 537 c 0
 70 856 253 1102 532 1102 c 0
 651 1102 749 1042 817 942 c 1
 817 1356 l 1
 604 1356 l 1
 604 1520 l 1
 1073 1520 l 1
 1073 172 l 1
 1229 172 l 1
 1229 0 l 1
 817 0 l 1x7c
 817 188 l 1
 737 28 623 -27 514 -27 c 0xbc
573 936 m 0
 380 936 340 702 340 524 c 0
 340 352 403 154 575 154 c 0xbc
 741 154 817 314 817 584 c 0
 817 750 759 936 573 936 c 0
EndSplineSet
EndChar

StartChar: e
Encoding: 91 101 77
Width: 1150
Flags: W
HStem: -29 199<475.101 770.932> 547 129<346 823> 952 152<472.761 729.039>
VStem: 68 268<328.28 547 676 768.369> 823 260<676 790.547>
LayerCount: 2
Fore
SplineSet
598 -29 m 0
 295 -27 68 191 68 535 c 0
 68 852 291 1104 578 1104 c 0
 857 1104 1077 918 1083 547 c 1
 338 547 l 1
 338 537 336 526 336 514 c 0
 336 354 420 164 639 170 c 0
 772 174 866 279 907 379 c 1
 1055 313 l 1
 1000 86 809 -29 604 -29 c 0
 602 -29 600 -29 598 -29 c 0
602 952 m 0
 457 952 364 807 346 676 c 1
 823 676 l 1
 823 832 745 952 602 952 c 0
EndSplineSet
EndChar

StartChar: f
Encoding: 92 102 78
Width: 835
Flags: W
HStem: 0 172<43 256 518 745> 915 158<43 256 518 754> 1493 90<603.342 828.672>
VStem: 256 262<172 915 1073 1341.95>
LayerCount: 2
Fore
SplineSet
256 915 m 1
 43 915 l 1
 43 1073 l 1
 256 1073 l 1
 256 1413 397 1583 678 1583 c 0
 909 1583 1016 1425 1016 1323 c 0
 1016 1214 942 1167 870 1167 c 0
 800 1167 731 1212 731 1292 c 0
 731 1368 803 1401 848 1407 c 1
 846 1456 778 1493 719 1493 c 0
 639 1493 518 1427 518 1237 c 2
 518 1073 l 1
 754 1073 l 1
 754 915 l 1
 518 915 l 1
 518 172 l 1
 745 172 l 1
 745 0 l 1
 43 0 l 1
 43 172 l 1
 256 172 l 1
 256 915 l 1
EndSplineSet
EndChar

StartChar: g
Encoding: 93 103 79
Width: 1222
Flags: W
HStem: -526 135<455.485 706.296> -29 166<452.803 694.531> 915 158<1073 1194> 922 180<454.014 693.497>
VStem: 70 270<286.354 775.893> 180 307<-377.263 -169.394> 817 256<-239.711 131 270.19 777.244>
LayerCount: 2
Fore
SplineSet
340 549 m 0xda
 340 371 380 137 573 137 c 0
 759 137 817 323 817 489 c 0
 817 759 741 922 575 922 c 0
 403 922 340 721 340 549 c 0xda
596 -526 m 0
 401 -526 188 -471 180 -276 c 0
 180 -274 180 -272 180 -270 c 0
 180 -188 250 -123 346 -123 c 0
 430 -123 487 -182 487 -260 c 0xe6
 487 -301 471 -342 451 -379 c 1
 476 -383 506 -391 535 -391 c 0
 750 -391 817 -276 817 0 c 2
 817 131 l 1
 749 31 651 -29 532 -29 c 0
 253 -29 70 218 70 537 c 0
 70 856 248 1102 514 1102 c 0xda
 647 1102 772 1036 862 915 c 1
 946 1073 l 1
 1194 1073 l 1
 1194 915 l 1
 1073 915 l 1xea
 1073 37 l 2
 1073 -266 954 -526 596 -526 c 0
EndSplineSet
EndChar

StartChar: h
Encoding: 94 104 80
Width: 1400
Flags: W
HStem: 0 172<31 221 477 659 754 936 1192 1389> 924 178<632.219 864.826> 1356 164<8 221>
VStem: 221 256<172 782.646 897 1356> 936 256<172 844.878>
LayerCount: 2
Fore
SplineSet
1192 717 m 2
 1192 172 l 1
 1389 172 l 1
 1389 0 l 1
 754 0 l 1
 754 172 l 1
 936 172 l 1
 936 702 l 2
 936 837 854 924 756 924 c 0
 531 924 477 732 477 537 c 2
 477 172 l 1
 659 172 l 1
 659 0 l 1
 31 0 l 1
 31 172 l 1
 221 172 l 1
 221 1356 l 1
 8 1356 l 1
 8 1520 l 1
 477 1520 l 1
 477 897 l 1
 561 1061 705 1102 834 1102 c 0
 949 1102 1192 1061 1192 717 c 2
EndSplineSet
EndChar

StartChar: i
Encoding: 95 105 81
Width: 684
Flags: W
HStem: 0 172<49 248 502 676> 915 158<47 248> 1262 346<243.842 469.017>
VStem: 184 346<1321.84 1547.02> 248 254<172 915>
LayerCount: 2
Fore
SplineSet
502 1073 m 1xe8
 502 172 l 1
 676 172 l 1
 676 0 l 1
 49 0 l 1
 49 172 l 1
 248 172 l 1
 248 915 l 1
 47 915 l 1
 47 1073 l 1
 502 1073 l 1xe8
184 1434 m 0xf0
 184 1528 262 1608 356 1608 c 0
 450 1608 530 1528 530 1434 c 0
 530 1340 450 1262 356 1262 c 0
 262 1262 184 1340 184 1434 c 0xf0
EndSplineSet
EndChar

StartChar: j
Encoding: 96 106 82
Width: 634
Flags: W
HStem: -467 117<53.7893 213.878> 915 158<29 262> 1262 346<243.842 469.017>
VStem: -195 304<-326.473 -124.33> 184 346<1321.84 1547.02> 262 256<-283.609 915>
LayerCount: 2
Fore
SplineSet
184 1434 m 0xf8
 184 1528 262 1608 356 1608 c 0
 450 1608 530 1528 530 1434 c 0
 530 1340 450 1262 356 1262 c 0
 262 1262 184 1340 184 1434 c 0xf8
139 -467 m 0
 -68 -467 -195 -387 -195 -252 c 0
 -195 -156 -148 -80 -33 -80 c 0
 59 -80 109 -149 109 -221 c 0
 109 -266 98 -314 51 -334 c 1
 51 -334 92 -350 137 -350 c 0
 196 -350 262 -299 262 -115 c 2
 262 915 l 1
 29 915 l 1
 29 1073 l 1
 518 1073 l 1
 518 -84 l 2xf4
 518 -334 366 -467 139 -467 c 0
EndSplineSet
EndChar

StartChar: k
Encoding: 97 107 83
Width: 1312
Flags: W
HStem: -29 197<1061.88 1283.94> 0 172<41 225 481 631> 915 158<653 834 1079 1266> 1356 164<23 225>
VStem: 225 256<172 410 586 1356>
LayerCount: 2
Fore
SplineSet
481 1520 m 1x78
 481 586 l 1
 481 586 717 809 834 915 c 1
 653 915 l 1
 653 1073 l 1
 1266 1073 l 1
 1266 915 l 1
 1079 915 l 1
 772 629 l 1
 774 627 938 356 1020 256 c 0
 1059 207 1102 168 1163 168 c 0
 1194 168 1239 170 1284 188 c 1
 1296 2 l 1
 1224 -29 1169 -29 1112 -29 c 0xb8
 977 -29 891 45 811 174 c 1
 614 512 l 1
 481 410 l 1
 481 172 l 1
 631 172 l 1
 631 0 l 1
 41 0 l 1
 41 172 l 1
 225 172 l 1
 225 1356 l 1
 23 1356 l 1
 23 1520 l 1
 481 1520 l 1x78
EndSplineSet
EndChar

StartChar: l
Encoding: 98 108 84
Width: 718
Flags: W
HStem: 0 172<43 250 506 702> 1356 164<47 250>
VStem: 250 256<172 1356>
LayerCount: 2
Fore
SplineSet
506 1520 m 1
 506 172 l 1
 702 172 l 1
 702 0 l 1
 43 0 l 1
 43 172 l 1
 250 172 l 1
 250 1356 l 1
 47 1356 l 1
 47 1520 l 1
 506 1520 l 1
EndSplineSet
EndChar

StartChar: m
Encoding: 99 109 85
Width: 1918
Flags: W
HStem: 0 172<41 236 492 631 731 872 1128 1266 1356 1489 1745 1907> 915 148<41 236> 936 166<644.237 831.309 1237.38 1445.06> 1065 20G<81.3636 485>
VStem: 236 256<172 748.576 887 915> 872 256<172 821.088> 1489 256<172 885.716>
LayerCount: 2
Fore
SplineSet
631 0 m 1xae
 41 0 l 1
 41 172 l 1
 236 172 l 1
 236 915 l 1
 41 915 l 1
 41 1063 l 1
 485 1085 l 1xde
 485 887 l 1
 546 1034 694 1102 819 1102 c 0
 903 1102 1032 1090 1087 887 c 1
 1144 1049 1303 1102 1434 1102 c 0
 1536 1102 1745 1067 1745 723 c 2
 1745 172 l 1
 1907 172 l 1
 1907 0 l 1
 1356 0 l 1
 1356 172 l 1
 1489 172 l 1
 1489 760 l 2
 1489 881 1422 934 1348 934 c 0
 1221 934 1128 793 1128 684 c 2
 1128 172 l 1
 1266 172 l 1
 1266 0 l 1
 731 0 l 1
 731 172 l 1
 872 172 l 1
 872 760 l 2
 872 871 813 936 743 936 c 0
 571 936 492 693 492 498 c 2
 492 172 l 1
 631 172 l 1
 631 0 l 1xae
EndSplineSet
EndChar

StartChar: n
Encoding: 100 110 86
Width: 1396
Flags: W
HStem: 0 172<41 231 487 670 764 946 1202 1384> 915 146<41 231> 1063 39G<81 481 775 907.5>
VStem: 231 256<172 781.394 883 915> 946 256<172 841.093>
LayerCount: 2
Fore
SplineSet
1202 713 m 2
 1202 172 l 1
 1384 172 l 1
 1384 0 l 1
 764 0 l 1
 764 172 l 1
 946 172 l 1
 946 690 l 2
 946 870 835 932 741 924 c 0
 534 908 487 725 487 537 c 2
 487 172 l 1
 670 172 l 1
 670 0 l 1
 41 0 l 1
 41 172 l 1
 231 172 l 1
 231 915 l 1
 41 915 l 1
 41 1061 l 1
 481 1083 l 1
 481 1034 481 885 481 883 c 1
 549 1043 700 1102 850 1102 c 0
 965 1102 1202 1057 1202 713 c 2
EndSplineSet
EndChar

StartChar: o
Encoding: 101 111 87
Width: 1208
Flags: W
HStem: -27 181<463.107 740.86> 936 166<466.98 741.047>
VStem: 68 270<301.872 772.996> 870 271<303.562 772.996>
LayerCount: 2
Fore
SplineSet
606 -27 m 0
 278 -27 68 218 68 537 c 0
 68 856 276 1102 604 1102 c 0
 932 1102 1141 856 1141 537 c 0
 1141 222 932 -27 606 -27 c 0
604 936 m 0
 379 936 338 702 338 524 c 0
 338 352 401 154 606 154 c 0
 809 154 870 356 870 524 c 0
 870 702 829 936 604 936 c 0
EndSplineSet
EndChar

StartChar: p
Encoding: 102 112 88
Width: 1239
Flags: W
HStem: -401 178<-27 168 424 637> -27 164<545.191 788.939> 915 158<-27 168> 920 182<565.279 785.996>
VStem: 168 256<-217 135 270.19 776.431 885 915> 901 270<276.59 775.463>
LayerCount: 2
Fore
SplineSet
-27 -401 m 1xdc
 -27 -223 l 1
 168 -223 l 1
 168 915 l 1
 -27 915 l 1
 -27 1073 l 1
 424 1073 l 1xec
 424 885 l 1
 496 1061 628 1102 737 1102 c 0
 1003 1102 1171 856 1171 537 c 0
 1171 218 1002 -27 723 -27 c 0
 604 -27 492 22 424 135 c 1
 424 -217 l 1
 637 -217 l 1
 637 -401 l 1
 -27 -401 l 1xdc
668 137 m 0
 861 137 901 371 901 549 c 0
 901 721 838 920 666 920 c 0xdc
 500 920 424 759 424 489 c 0
 424 323 482 137 668 137 c 0
EndSplineSet
EndChar

StartChar: q
Encoding: 103 113 89
Width: 1202
Flags: W
HStem: -399 174<600 815 1071 1264> -29 166<450.803 692.531> 922 180<452.014 691.497> 1053 20G<933.367 1071> 1053 20G<933.367 1071>
VStem: 68 270<286.354 775.893> 815 256<-225 131 270.19 777.244>
LayerCount: 2
Fore
SplineSet
600 -399 m 1xd6
 600 -225 l 1
 815 -225 l 1
 815 131 l 1
 747 31 649 -29 530 -29 c 0
 251 -29 68 218 68 537 c 0
 68 856 246 1102 512 1102 c 0xe6
 645 1102 770 1036 860 915 c 1
 944 1073 l 1
 1071 1073 l 1
 1071 -225 l 1
 1264 -225 l 1
 1264 -399 l 1
 600 -399 l 1xd6
571 137 m 0
 757 137 815 323 815 489 c 0
 815 759 739 922 573 922 c 0
 401 922 338 721 338 549 c 0
 338 371 378 137 571 137 c 0
EndSplineSet
EndChar

StartChar: r
Encoding: 104 114 90
Width: 976
Flags: W
HStem: 0 172<51 233 489 705> 727 363<707.585 923.303> 915 146<41 233>
VStem: 233 256<172 816.22 891 915> 672 311<782.556 935.593>
LayerCount: 2
Fore
SplineSet
705 172 m 1xd8
 705 0 l 1
 51 0 l 1
 51 172 l 1
 233 172 l 1
 233 915 l 1
 41 915 l 1
 41 1061 l 1xb8
 483 1085 l 1
 483 891 l 1
 530 1012 641 1084 774 1090 c 0
 874 1094 983 1050 983 903 c 0
 983 792 897 727 821 727 c 0
 749 727 672 770 672 856 c 0
 672 911 680 928 690 936 c 1
 516 922 489 710 489 528 c 2
 489 172 l 1
 705 172 l 1xd8
EndSplineSet
EndChar

StartChar: s
Encoding: 105 115 91
Width: 1060
Flags: W
HStem: -31 156<285.778 666.755> 963 137<357.3 736.099>
VStem: 66 272<197.395 358.328> 78 241<757.907 919.865> 690 273<724.503 886.773> 721 252<175.364 358.075>
LayerCount: 2
Fore
SplineSet
528 -31 m 0xd4
 315 -31 66 33 66 256 c 0
 66 342 139 401 213 401 c 0
 276 401 338 363 338 279 c 0
 338 240 301 192 274 174 c 1
 340 141 415 125 485 125 c 0
 612 125 721 166 721 262 c 0xe4
 721 391 568 408 416 461 c 0
 232 524 78 578 78 799 c 0
 78 1020 333 1100 485 1100 c 0
 667 1100 963 1063 963 825 c 0
 963 739 889 682 815 682 c 0
 752 682 690 721 690 805 c 0xd8
 690 850 731 897 758 905 c 1
 703 944 627 963 551 963 c 0
 430 963 319 934 319 842 c 0
 319 750 397 735 551 688 c 0
 737 631 973 575 973 311 c 0
 973 59 731 -31 528 -31 c 0xd4
EndSplineSet
EndChar

StartChar: t
Encoding: 106 116 92
Width: 888
Flags: W
HStem: -27 195<461.113 648.178> 915 158<432 797> 918 69<-47 23.9758> 1500 20G<383 403>
VStem: 168 264<195.562 915> 348 84<1371.85 1519.86> 686 145<205.875 494>
LayerCount: 2
Fore
SplineSet
168 918 m 1xba
 -47 918 l 1
 -47 987 l 1xba
 221 1077 319 1391 348 1485 c 0
 354 1508 373 1520 393 1520 c 0
 413 1520 432 1508 432 1485 c 2
 432 1073 l 1xd6
 797 1073 l 1
 797 915 l 1
 432 915 l 1xda
 432 305 l 2
 432 270 446 168 555 168 c 0
 643 168 686 228 686 373 c 2
 686 494 l 1
 831 494 l 1
 831 471 831 405 831 385 c 0
 831 113 745 -27 481 -27 c 0
 352 -27 168 64 168 279 c 2
 168 918 l 1xba
EndSplineSet
EndChar

StartChar: u
Encoding: 107 117 93
Width: 1282
Flags: W
HStem: -27 177<465.184 693.47> 10 162<1102 1268> 915 158<-25 156 659 846>
VStem: 156 256<210.468 915> 846 256<172 193 278.996 915>
LayerCount: 2
Fore
SplineSet
412 1073 m 1xb8
 412 342 l 2
 412 190 506 150 588 150 c 0xb8
 760 150 846 288 846 483 c 2
 846 915 l 1
 659 915 l 1
 659 1073 l 1
 1102 1073 l 1
 1102 172 l 1
 1268 172 l 1
 1268 10 l 1x78
 852 -8 l 1
 852 193 l 1
 807 48 647 -27 514 -27 c 0
 405 -27 156 6 156 350 c 2
 156 915 l 1
 -25 915 l 1
 -25 1073 l 1
 412 1073 l 1xb8
EndSplineSet
EndChar

StartChar: v
Encoding: 108 118 94
Width: 1320
Flags: W
HStem: 915 158<2 188 487 643 780 950 1161 1319>
LayerCount: 2
Fore
SplineSet
674 -23 m 0
 594 -23 559 23 483 211 c 1
 188 915 l 1
 2 915 l 1
 2 1073 l 1
 643 1073 l 1
 643 915 l 1
 487 915 l 1
 711 301 l 1
 950 915 l 1
 780 915 l 1
 780 1073 l 1
 1319 1073 l 1
 1319 915 l 1
 1161 915 l 1
 883 238 l 1
 799 27 760 -23 674 -23 c 0
EndSplineSet
EndChar

StartChar: w
Encoding: 109 119 95
Width: 1767
Flags: W
HStem: 915 158<14 184 459 606 1217 1380 1577 1753>
LayerCount: 2
Fore
SplineSet
1206 -23 m 0
 1126 -23 1104 49 1024 266 c 2
 891 629 l 1
 756 276 l 2
 660 24 635 -23 547 -23 c 0
 461 -23 428 49 373 246 c 2
 184 915 l 1
 14 915 l 1
 14 1073 l 1
 606 1073 l 1
 606 915 l 1
 459 915 l 1
 600 301 l 1
 817 895 l 1
 1006 895 l 1
 1221 301 l 1
 1380 915 l 1
 1217 915 l 1
 1217 1073 l 1
 1753 1073 l 1
 1753 915 l 1
 1577 915 l 1
 1384 276 l 2
 1304 14 1288 -23 1206 -23 c 0
EndSplineSet
EndChar

StartChar: x
Encoding: 110 120 96
Width: 1384
Flags: W
HStem: 0 172<35 193 428 596 750 881 1176 1350> 915 158<49 209 518 643 762 946 1165 1333>
LayerCount: 2
Fore
SplineSet
596 0 m 1
 35 0 l 1
 35 172 l 1
 193 172 l 1
 557 535 l 1
 209 915 l 1
 49 915 l 1
 49 1073 l 1
 643 1073 l 1
 643 915 l 1
 518 915 l 1
 717 692 l 1
 946 915 l 1
 762 915 l 1
 762 1073 l 1
 1333 1073 l 1
 1333 915 l 1
 1165 915 l 1
 823 573 l 1
 1176 172 l 1
 1350 172 l 1
 1350 0 l 1
 750 0 l 1
 750 172 l 1
 881 172 l 1
 666 416 l 1
 428 172 l 1
 596 172 l 1
 596 0 l 1
EndSplineSet
EndChar

StartChar: y
Encoding: 111 121 97
Width: 1292
Flags: W
HStem: -496 140<238.499 389.057> 915 158<-39 147 446 602 748 897 1128 1286>
VStem: -18 307<-335.882 -131.384>
LayerCount: 2
Fore
SplineSet
313 -496 m 0
 131 -496 -18 -412 -18 -240 c 0
 -18 -156 49 -80 147 -80 c 0
 231 -80 289 -131 289 -209 c 0
 289 -258 262 -321 233 -350 c 1
 249 -354 268 -356 293 -356 c 0
 410 -356 479 -233 530 0 c 1
 147 915 l 1
 -39 915 l 1
 -39 1073 l 1
 602 1073 l 1
 602 915 l 1
 446 915 l 1
 688 260 l 1
 897 915 l 1
 748 915 l 1
 748 1073 l 1
 1286 1073 l 1
 1286 915 l 1
 1128 915 l 1
 793 -4 l 2
 709 -229 609 -490 326 -496 c 0
 322 -496 317 -496 313 -496 c 0
EndSplineSet
EndChar

StartChar: z
Encoding: 112 122 98
Width: 1171
Flags: W
HStem: 0 158<399 891> 915 158<305 764>
VStem: 100 205<608 915> 891 199<158 463>
LayerCount: 2
Fore
SplineSet
764 915 m 1
 305 915 l 1
 305 608 l 1
 100 608 l 1
 100 1073 l 1
 1018 1073 l 1
 1036 874 l 1
 399 158 l 1
 891 158 l 1
 891 463 l 1
 1090 463 l 1
 1090 0 l 1
 131 0 l 1
 109 190 l 1
 764 915 l 1
EndSplineSet
EndChar

StartChar: braceleft
Encoding: 113 123 99
Width: 886
Flags: W
HStem: -293 127<584.791 780> 557 176<-10 212.189> 1456 127<584.791 780>
VStem: 221 307<-64.3149 544.176 745.824 1354.31>
CounterMasks: 1 e0
LayerCount: 2
Fore
SplineSet
356 645 m 1
 489 614 528 522 528 256 c 0
 528 -102 518 -166 780 -166 c 1
 780 -293 l 1
 352 -293 221 -165 221 236 c 0
 221 525 243 557 104 557 c 2
 -10 557 l 1
 -10 733 l 1
 104 733 l 2
 243 733 221 766 221 1055 c 0
 221 1456 352 1583 780 1583 c 1
 780 1456 l 1
 518 1456 528 1392 528 1034 c 0
 528 768 489 676 356 645 c 1
EndSplineSet
EndChar

StartChar: bar
Encoding: 114 124 100
Width: 692
Flags: W
VStem: 246 200<-246 1606>
LayerCount: 2
Fore
SplineSet
446 -246 m 1
 246 -246 l 1
 246 1606 l 1
 446 1606 l 1
 446 -246 l 1
EndSplineSet
EndChar

StartChar: braceright
Encoding: 115 125 101
Width: 886
Flags: W
HStem: -293 127<584.791 780> 557 176<-10 212.189> 1456 127<584.791 780>
VStem: 221 307<-64.3149 544.176 745.824 1354.31>
CounterMasks: 1 e0
LayerCount: 2
Fore
SplineSet
356 645 m 1
 489 614 528 522 528 256 c 0
 528 -102 518 -166 780 -166 c 1
 780 -293 l 1
 352 -293 221 -165 221 236 c 0
 221 525 243 557 104 557 c 2
 -10 557 l 1
 -10 733 l 1
 104 733 l 2
 243 733 221 766 221 1055 c 0
 221 1456 352 1583 780 1583 c 1
 780 1456 l 1
 518 1456 528 1392 528 1034 c 0
 528 768 489 676 356 645 c 1
EndSplineSet
EndChar

StartChar: asciitilde
Encoding: 116 126 102
Width: 1060
Flags: W
HStem: 752 196<628.42 855.485> 866 207<200.029 446.994>
VStem: 45 145<752 857.824> 870 146<955.444 1071>
LayerCount: 2
Fore
SplineSet
788 948 m 0xb0
 702 948 455 1073 303 1073 c 0x70
 127 1073 45 1006 45 752 c 1
 190 752 l 1xb0
 190 846 219 866 272 866 c 0x70
 356 866 602 752 758 752 c 0
 932 752 1016 815 1016 1071 c 1
 870 1071 l 1
 870 977 841 948 788 948 c 0xb0
EndSplineSet
EndChar

StartChar: aring
Encoding: 186 229 104
Width: 1349
Flags: W
HStem: -27 158<347.023 558.269 1014.05 1146.25> 975 129<360.2 660.005> 1208 86<497.917 660.643> 1534 84<498.733 660.211>
VStem: 88 244<142.346 337.989> 123 328<702 908.85> 356 117<1316.21 1511.9> 684 119<1314.99 1514.08> 717 262<269.096 557 656.861 917.953> 1176 133<165.789 446>
LayerCount: 2
Fore
SplineSet
356 1415 m 0xf340
 356 1517 433 1618 580 1618 c 0
 725 1618 803 1515 803 1413 c 0
 803 1311 725 1208 580 1208 c 0
 435 1208 356 1313 356 1415 c 0xf340
580 1534 m 0
 529 1534 473 1493 473 1413 c 0
 473 1333 527 1294 578 1294 c 0
 631 1294 684 1335 684 1413 c 0
 684 1493 633 1534 580 1534 c 0
1028 -29 m 0
 1024 -29 1022 -29 1020 -29 c 0
 893 -27 776 20 735 170 c 1
 665 53 531 -27 371 -27 c 0
 203 -27 88 64 88 238 c 0xf8c0
 88 574 723 508 723 764 c 0
 723 926 633 975 514 975 c 0
 461 975 405 965 358 942 c 1
 403 936 451 862 451 805 c 0
 451 803 451 801 451 797 c 0
 451 717 387 653 287 653 c 0
 183 653 123 727 123 823 c 2
 123 823 123 825 123 827 c 0
 125 997 334 1104 537 1104 c 0
 750 1104 979 1024 979 743 c 2
 979 317 l 2xf4c0
 979 249 987 141 1079 141 c 0
 1165 141 1176 235 1176 313 c 2
 1176 446 l 1
 1309 446 l 1
 1309 307 l 2
 1309 35 1175 -29 1028 -29 c 0
424 131 m 0
 522 131 717 252 717 375 c 2
 717 557 l 1
 481 369 332 385 332 244 c 0
 332 183 356 131 424 131 c 0
EndSplineSet
EndChar

StartChar: ccedilla
Encoding: 188 231 105
Width: 1140
Flags: W
HStem: -444 71<436.346 527.746> -27 27<553 713> 606 256<781.955 885> 969 135<512.164 820.631>
VStem: 68 278<341.297 759.324> 465 248<-237.568 -73.0707> 559 154<-343.897 -241.927> 750 305<653.461 824.197>
LayerCount: 2
Fore
SplineSet
713 -276 m 2xfb
 713 -405 442 -444 442 -444 c 1
 414 -373 l 1
 480 -361 559 -336 559 -307 c 0xfb
 559 -264 465 -217 465 -168 c 0xfd
 465 -96 553 0 674 0 c 0
 676 0 705 0 713 0 c 1
 713 -276 l 2xfb
68 516 m 0
 68 835 267 1104 625 1104 c 0
 813 1104 1055 1014 1055 756 c 0
 1055 688 997 606 891 606 c 0
 811 606 756 649 750 723 c 0
 750 727 750 731 750 735 c 0
 750 825 832 862 885 862 c 1
 844 928 768 969 659 969 c 0
 458 969 346 776 346 573 c 0
 346 337 447 162 670 162 c 0
 842 162 919 311 950 385 c 1
 1081 336 l 1
 1032 121 842 -27 596 -27 c 0
 313 -27 68 186 68 516 c 0
EndSplineSet
EndChar

StartChar: eacute
Encoding: 190 233 106
Width: 1204
Flags: W
HStem: -29 199<475.101 770.932> 547 129<346 823> 952 152<472.761 729.039>
VStem: 68 268<328.28 547 676 768.369> 823 260<676 790.547>
LayerCount: 2
Fore
SplineSet
598 -29 m 0
 295 -27 68 191 68 535 c 0
 68 852 291 1104 578 1104 c 0
 857 1104 1077 918 1083 547 c 1
 338 547 l 1
 338 537 336 526 336 514 c 0
 336 354 420 164 639 170 c 0
 772 174 866 279 907 379 c 1
 1055 313 l 1
 1000 86 809 -29 604 -29 c 0
 602 -29 600 -29 598 -29 c 0
602 952 m 0
 457 952 364 807 346 676 c 1
 823 676 l 1
 823 832 745 952 602 952 c 0
991 1430 m 1
 891 1328 434 1180 434 1180 c 1
 383 1251 l 1
 565 1407 858 1614 858 1614 c 1
 991 1430 l 1
EndSplineSet
EndChar

StartChar: ecircumflex
Encoding: 191 234 107
Width: 1163
Flags: W
HStem: -29 199<475.101 770.932> 547 129<346 823> 952 152<472.761 729.039>
VStem: 68 268<328.28 547 676 768.369> 823 260<676 790.547>
LayerCount: 2
Fore
SplineSet
623 1413 m 1
 545 1343 412 1169 412 1169 c 1
 293 1282 l 1
 618 1632 l 1
 946 1276 l 1
 827 1165 l 1
 827 1165 701 1343 623 1413 c 1
598 -29 m 0
 295 -27 68 191 68 535 c 0
 68 852 291 1104 578 1104 c 0
 857 1104 1077 918 1083 547 c 1
 338 547 l 1
 338 537 336 526 336 514 c 0
 336 354 420 164 639 170 c 0
 772 174 866 279 907 379 c 1
 1055 313 l 1
 1000 86 809 -29 604 -29 c 0
 602 -29 600 -29 598 -29 c 0
602 952 m 0
 457 952 364 807 346 676 c 1
 823 676 l 1
 823 832 745 952 602 952 c 0
EndSplineSet
EndChar

StartChar: edieresis
Encoding: 192 235 108
Width: 1150
Flags: W
HStem: -29 199<475.101 770.932> 547 129<346 823> 952 152<472.761 729.039> 1180 276<244.708 442.566 719.708 918.613>
VStem: 68 268<328.28 547 676 768.369> 207 274<1218.43 1417.34> 682 276<1218.43 1417.34> 823 260<676 790.547>
LayerCount: 2
Fore
SplineSet
682 1317 m 0xf2
 682 1393 743 1456 819 1456 c 0
 893 1456 958 1393 958 1317 c 0
 958 1243 893 1180 819 1180 c 0
 743 1180 682 1243 682 1317 c 0xf2
207 1317 m 0xf4
 207 1393 268 1456 344 1456 c 0
 418 1456 481 1393 481 1317 c 0
 481 1243 418 1180 344 1180 c 0
 268 1180 207 1243 207 1317 c 0xf4
598 -29 m 0
 295 -27 68 191 68 535 c 0
 68 852 291 1104 578 1104 c 0
 857 1104 1077 918 1083 547 c 1
 338 547 l 1
 338 537 336 526 336 514 c 0xf9
 336 354 420 164 639 170 c 0
 772 174 866 279 907 379 c 1
 1055 313 l 1
 1000 86 809 -29 604 -29 c 0
 602 -29 600 -29 598 -29 c 0
602 952 m 0
 457 952 364 807 346 676 c 1
 823 676 l 1
 823 832 745 952 602 952 c 0
EndSplineSet
EndChar

StartChar: otilde
Encoding: 202 245 109
Width: 1208
Flags: W
HStem: -27 181<463.107 740.86> 936 166<466.98 741.047> 1245 191<432.986 607.103> 1341 191<642.351 816.14>
VStem: 68 270<301.872 772.996> 297 129<1444.69 1530> 823 129<1247 1332.31> 870 271<303.562 772.996>
LayerCount: 2
Fore
SplineSet
606 -27 m 0xc9
 278 -27 68 218 68 537 c 0
 68 856 276 1102 604 1102 c 0
 932 1102 1141 856 1141 537 c 0
 1141 222 932 -27 606 -27 c 0xc9
604 936 m 0
 379 936 338 702 338 524 c 0
 338 352 401 154 606 154 c 0
 809 154 870 356 870 524 c 0
 870 702 829 936 604 936 c 0
758 1341 m 0xd6
 686 1341 596 1245 477 1245 c 0
 354 1245 297 1352 297 1530 c 1
 426 1530 l 1
 426 1473 443 1436 492 1436 c 0xe6
 564 1436 653 1532 772 1532 c 0
 895 1532 952 1425 952 1247 c 1
 823 1247 l 1
 823 1304 807 1341 758 1341 c 0xd6
EndSplineSet
EndChar

StartChar: degree
Encoding: 133 176 110
Width: 757
Flags: W
HStem: 922 96<261.829 491.21> 1421 88<267.46 490.1>
VStem: 63 138<1079.82 1353.59> 557 137<1083.72 1353.59>
LayerCount: 2
Fore
SplineSet
63 1217 m 0
 63 1381 178 1509 379 1509 c 0
 578 1509 694 1381 694 1217 c 0
 694 1053 578 922 379 922 c 0
 182 922 63 1049 63 1217 c 0
379 1421 m 0
 293 1421 201 1352 201 1217 c 0
 201 1080 289 1018 377 1018 c 0
 463 1018 557 1086 557 1217 c 0
 557 1352 465 1421 379 1421 c 0
EndSplineSet
EndChar

StartChar: cent
Encoding: 119 162 111
Width: 1146
Flags: W
HStem: -27 189<503.937 816.377> 606 256<781.955 885> 969 135<389.019 820.631>
VStem: 68 278<341.297 759.324> 559 88<-213 1290> 750 305<653.461 824.197>
LayerCount: 2
Fore
SplineSet
559 1290 m 1
 647 1290 l 1
 647 -213 l 1
 559 -213 l 1
 559 1290 l 1
68 516 m 0
 68 835 267 1104 625 1104 c 0
 813 1104 1055 1014 1055 756 c 0
 1055 688 997 606 891 606 c 0
 811 606 756 649 750 723 c 0
 750 727 750 731 750 735 c 0
 750 825 832 862 885 862 c 1
 844 928 768 969 659 969 c 0
 458 969 346 776 346 573 c 0
 346 337 447 162 670 162 c 0
 842 162 919 311 950 385 c 1
 1081 336 l 1
 1032 121 842 -27 596 -27 c 0
 313 -27 68 186 68 516 c 0
EndSplineSet
EndChar

StartChar: sterling
Encoding: 120 163 112
Width: 1271
Flags: W
HStem: 0 172<356 958> 647 150<164 299 584 821> 1362 147<526.827 860.859>
VStem: 184 256<1006.43 1285.76> 313 271<420.742 645> 805 344<1038.09 1236.94> 958 187<172 496>
LayerCount: 2
Fore
SplineSet
1145 496 m 1xea
 1145 0 l 1
 170 0 l 1
 106 170 l 1
 204 283 313 420 313 625 c 0
 313 633 313 639 313 645 c 1xea
 141 645 l 1
 164 797 l 1
 299 797 l 1
 258 973 186 1044 184 1155 c 0
 184 1157 184 1157 184 1159 c 0
 184 1370 385 1503 684 1509 c 0
 688 1509 692 1509 694 1509 c 0
 921 1509 1149 1392 1149 1167 c 0
 1149 1050 1077 985 973 985 c 0
 889 985 813 1040 805 1130 c 0
 805 1134 805 1137 805 1141 c 0
 805 1213 866 1272 907 1284 c 1
 858 1325 807 1362 709 1362 c 0
 535 1362 440 1292 440 1161 c 0xf4
 440 1046 528 957 567 797 c 1
 848 797 l 1
 821 647 l 1
 584 647 l 1
 584 639 584 633 584 627 c 0
 584 434 479 281 356 172 c 1
 958 172 l 1
 958 496 l 1
 1145 496 l 1xea
EndSplineSet
EndChar

StartChar: section
Encoding: 124 167 113
Width: 1034
Flags: W
HStem: -16 116<297.057 659.739> 1087 21G<783.5 852> 1395 110<378.199 732.364>
VStem: 63 236<731.132 907.754> 74 272<191.668 359.136> 78 241<1167.96 1340.51> 690 273<1129.5 1292.75> 717 241<156.731 326.908> 750 223<588.855 768.918>
LayerCount: 2
Fore
SplineSet
700 584 m 1xf080
 705 588 l 1
 734 613 750 643 750 682 c 0
 750 811 568 828 416 881 c 0
 389 891 363 899 336 909 c 1
 313 884 299 856 299 821 c 0
 299 692 469 665 621 612 c 0
 648 602 673 594 700 584 c 1xf080
508 -16 m 0
 326 -16 74 47 74 258 c 0
 74 344 147 401 221 401 c 0
 284 401 346 363 346 279 c 0xe9
 346 213 289 174 256 170 c 1
 313 121 403 100 489 100 c 0
 610 100 717 150 717 242 c 0
 717 334 639 348 485 395 c 0
 299 452 63 508 63 772 c 0xf1
 63 872 105 948 164 1001 c 1
 111 1050 78 1117 78 1219 c 0
 78 1430 352 1505 504 1505 c 0
 686 1505 963 1469 963 1231 c 0
 963 1145 889 1087 815 1087 c 0
 752 1087 690 1126 690 1210 c 0xe6
 690 1276 747 1317 780 1321 c 1
 723 1370 637 1395 551 1395 c 0
 430 1395 319 1347 319 1255 c 0
 319 1163 397 1141 551 1094 c 0
 737 1037 973 995 973 731 c 0xe480
 973 629 931 553 870 498 c 1
 925 453 958 389 958 285 c 0xe1
 958 64 701 -16 508 -16 c 0
EndSplineSet
EndChar

StartChar: bullet
Encoding: 392 8226 114
Width: 827
Flags: W
HStem: 463 629<246.72 581.916>
VStem: 98 631<612.629 943.076>
LayerCount: 2
Fore
SplineSet
98 778 m 0
 98 942 213 1092 414 1092 c 0
 613 1092 729 942 729 778 c 0
 729 614 613 463 414 463 c 0
 217 463 98 610 98 778 c 0
EndSplineSet
EndChar

StartChar: paragraph
Encoding: 139 182 115
Width: 1210
Flags: W
VStem: 147 959<929.73 1282.78> 627 170<-57 735> 942 164<-57 735>
LayerCount: 2
Fore
SplineSet
797 735 m 1x60
 797 -57 l 1
 627 -57 l 1
 627 735 l 1x60
 565 735 l 2
 284 735 147 920 147 1106 c 0x80
 147 1292 285 1479 555 1479 c 2
 1106 1479 l 1
 1106 -57 l 1
 942 -57 l 1
 942 735 l 1
 797 735 l 1x60
EndSplineSet
EndChar

StartChar: germandbls
Encoding: 180 223 116
Width: 1382
Flags: W
HStem: 0 178<59 256 682 967.298> 936 137<59 330> 1317 172<603.536 900.865>
VStem: 59 453<0 178 936 1073> 256 256<178 936 981 1213.59> 256 74<936 1073> 938 250<1040.01 1276.82> 1065 258<261.594 487.469>
LayerCount: 2
Fore
SplineSet
330 936 m 1xe4
 59 936 l 1
 59 1073 l 1xf0
 330 1073 l 1
 330 936 l 1xe4
512 981 m 2
 512 0 l 1
 59 0 l 1
 59 178 l 1xf2
 256 178 l 1
 256 981 l 2
 256 1317 452 1489 743 1489 c 0
 976 1489 1188 1391 1188 1139 c 0xea
 1188 901 907 809 907 770 c 0
 907 711 1323 661 1323 350 c 0
 1323 24 930 0 682 0 c 1
 682 178 l 1
 1044 178 1065 291 1065 381 c 0xe1
 1065 586 670 612 670 766 c 0
 670 768 670 768 670 770 c 0
 678 930 938 983 938 1149 c 0xe2
 938 1280 879 1317 752 1317 c 0
 580 1317 512 1212 512 981 c 2
EndSplineSet
EndChar

StartChar: registered
Encoding: 131 174 117
Width: 1703
Flags: W
HStem: -27 97<623.835 1082.94> 328 96<1107.86 1201.59> 344 78<438 563 717 819> 745 68<717 854.901> 1106 80<438 563 717 963.582> 1421 88<623.835 1082.94>
VStem: 84 94<514.433 973.473> 563 154<422 745 813 1106> 1012 155<857.307 1061.96> 1210 103<428.329 608> 1530 90<514.433 982.396>
LayerCount: 2
Fore
SplineSet
852 -27 m 0x9fe0
 432 -27 84 321 84 743 c 0
 84 1163 432 1509 852 1509 c 0
 1274 1509 1620 1163 1620 743 c 0
 1620 321 1274 -27 852 -27 c 0x9fe0
854 70 m 0
 1227 70 1530 374 1530 745 c 0
 1530 1118 1227 1421 854 1421 c 0
 483 1421 178 1118 178 745 c 0
 178 374 483 70 854 70 c 0
1122 328 m 0xdfe0
 981 328 938 405 911 569 c 1
 891 682 835 745 819 745 c 2
 717 745 l 1
 717 422 l 1
 819 422 l 1
 819 344 l 1
 438 344 l 1
 438 422 l 1
 563 422 l 1xbfe0
 563 1106 l 1
 438 1106 l 1
 438 1186 l 1
 764 1186 l 2
 928 1186 1167 1175 1167 958 c 1
 1165 831 1063 785 944 762 c 1
 1155 717 1053 424 1147 424 c 0
 1188 424 1210 453 1210 537 c 2
 1210 608 l 1
 1313 608 l 1
 1313 524 l 2
 1313 358 1200 328 1122 328 c 0xdfe0
717 813 m 1
 768 813 l 2
 932 813 1012 852 1012 958 c 1
 1008 1075 940 1106 764 1106 c 2
 717 1106 l 1
 717 813 l 1
EndSplineSet
EndChar

StartChar: copyright
Encoding: 126 169 118
Width: 1703
Flags: W
HStem: -27 97<623.835 1082.94> 326 104<774.211 1047.32> 815 209<1004.44 1100> 1126 82<757.559 1037.41> 1421 88<623.835 1082.94>
VStem: 84 94<514.433 973.473> 463 164<586.769 970.902> 981 238<845.346 994.582> 1167 78<562.95 609.168> 1530 90<514.433 982.396>
LayerCount: 2
Fore
SplineSet
852 -27 m 0xfe40
 432 -27 84 321 84 743 c 0
 84 1163 432 1509 852 1509 c 0
 1274 1509 1620 1163 1620 743 c 0
 1620 321 1274 -27 852 -27 c 0xfe40
854 70 m 0
 1227 70 1530 374 1530 745 c 0
 1530 1118 1227 1421 854 1421 c 0
 483 1421 178 1118 178 745 c 0
 178 374 483 70 854 70 c 0
1245 602 m 1xfec0
 1204 430 1053 326 883 326 c 0
 643 328 463 524 463 768 c 0
 465 1024 639 1208 893 1208 c 0
 1049 1208 1219 1104 1219 934 c 0
 1219 881 1172 815 1092 815 c 0
 1033 815 981 857 981 918 c 0xff40
 981 992 1061 1024 1100 1024 c 1
 1065 1077 995 1126 891 1126 c 0
 737 1126 627 995 627 772 c 0
 627 608 727 438 903 430 c 1
 1044 430 1142 543 1167 641 c 1
 1245 602 l 1xfec0
EndSplineSet
EndChar

StartChar: acute
Encoding: 137 180 119
Width: 1269
Flags: W
HStem: 1180 434
VStem: 383 608
LayerCount: 2
Fore
SplineSet
991 1430 m 1
 891 1328 434 1180 434 1180 c 1
 383 1251 l 1
 565 1407 858 1614 858 1614 c 1
 991 1430 l 1
EndSplineSet
EndChar

StartChar: dieresis
Encoding: 125 168 120
Width: 1056
Flags: W
HStem: 1180 276<209.708 407.566 684.708 884.137>
VStem: 172 274<1218.43 1417.34> 647 277<1218.43 1417.34>
LayerCount: 2
Fore
SplineSet
647 1317 m 0
 647 1393 708 1456 784 1456 c 0
 858 1456 924 1393 924 1317 c 0
 924 1243 858 1180 784 1180 c 0
 708 1180 647 1243 647 1317 c 0
172 1317 m 0
 172 1393 233 1456 309 1456 c 0
 383 1456 446 1393 446 1317 c 0
 446 1243 383 1180 309 1180 c 0
 233 1180 172 1243 172 1317 c 0
EndSplineSet
EndChar

StartChar: AE
Encoding: 155 198 121
Width: 2312
Flags: W
HStem: 0 178<-4 217 526 717 1370 1976> 528 156<770 1085> 698 156<1370 1630> 1335 185<582 803 1370 1976>
VStem: 1085 285<178 528 684 698 854 1335> 1630 174<444 698 854 1059> 1976 246<178 571 940 1335>
LayerCount: 2
Fore
SplineSet
1085 684 m 1
 1085 1335 l 1
 770 684 l 1
 1085 684 l 1
717 0 m 1
 -4 0 l 1
 -4 178 l 1
 217 178 l 1
 803 1335 l 1
 582 1335 l 1
 582 1520 l 1
 2222 1520 l 1
 2222 940 l 1
 1976 940 l 1
 1976 1335 l 1
 1370 1335 l 1
 1370 854 l 1
 1630 854 l 1
 1630 1059 l 1
 1804 1059 l 1
 1804 444 l 1
 1630 444 l 1
 1630 698 l 1
 1370 698 l 1
 1370 178 l 1
 1976 178 l 1
 1976 571 l 1
 2222 571 l 1
 2222 0 l 1
 1085 0 l 1
 1085 528 l 1
 692 528 l 1
 526 178 l 1
 717 178 l 1
 717 0 l 1
EndSplineSet
EndChar

StartChar: Oslash
Encoding: 173 216 122
Width: 1589
Flags: W
HStem: -27 195<657.896 955.844> 1356 194<657.896 955.844>
VStem: 90 326<489.094 1034.42> 1198 326<487.599 1031.83>
LayerCount: 2
Fore
SplineSet
1432 1536 m 1
 1497 1483 l 1
 166 -90 l 1
 100 -37 l 1
 1432 1536 l 1
807 1356 m 1
 553 1356 416 1049 416 762 c 0
 416 475 553 168 807 168 c 0
 1061 168 1198 471 1198 758 c 0
 1198 1043 1061 1350 807 1356 c 1
807 -27 m 0
 328 -27 90 377 90 762 c 0
 90 1145 328 1550 807 1550 c 0
 1284 1550 1524 1145 1524 762 c 0
 1524 377 1284 -27 807 -27 c 0
EndSplineSet
EndChar

StartChar: plusminus
Encoding: 134 177 123
Width: 1425
Flags: W
HStem: 0 178<342 1087> 616 199<311 1114> 1055 20G<598 827>
VStem: 598 229<379 1075>
LayerCount: 2
Fore
SplineSet
1087 0 m 1
 342 0 l 1
 342 178 l 1
 1087 178 l 1
 1087 0 l 1
311 616 m 1
 311 815 l 1
 1114 815 l 1
 1114 616 l 1
 311 616 l 1
598 1075 m 1
 827 1075 l 1
 827 379 l 1
 598 379 l 1
 598 1075 l 1
EndSplineSet
EndChar

StartChar: yen
Encoding: 122 165 124
Width: 1681
Flags: W
HStem: 0 178<430 674 971 1200> 446 132<393 1245> 653 131<393 1245> 1335 185<12 256 553 776 981 1206 1421 1655>
VStem: 674 297<178 653>
LayerCount: 2
Fore
SplineSet
1245 578 m 1
 1245 446 l 1
 393 446 l 1
 393 578 l 1
 1245 578 l 1
1245 784 m 1
 1245 653 l 1
 393 653 l 1
 393 784 l 1
 1245 784 l 1
430 0 m 1
 430 178 l 1
 674 178 l 1
 674 657 l 1
 256 1335 l 1
 12 1335 l 1
 12 1520 l 1
 776 1520 l 1
 776 1335 l 1
 553 1335 l 1
 870 813 l 1
 1206 1335 l 1
 981 1335 l 1
 981 1520 l 1
 1655 1520 l 1
 1655 1335 l 1
 1421 1335 l 1
 971 653 l 1
 971 178 l 1
 1200 178 l 1
 1200 0 l 1
 430 0 l 1
EndSplineSet
EndChar

StartChar: mu
Encoding: 65538 956 125
Width: 1282
Flags: W
HStem: -27 177<463.171 693.47> 10 162<1102 1268> 915 158<-25 156 659 846>
VStem: 156 256<204.02 915> 156 206<-429.014 -115.638> 846 256<172 193 278.996 915>
LayerCount: 2
Fore
SplineSet
362 -336 m 0xac
 362 -397 323 -449 262 -449 c 0
 180 -449 156 -381 156 -301 c 2xac
 156 915 l 1
 -25 915 l 1
 -25 1073 l 1
 412 1073 l 1
 412 342 l 2
 412 190 506 150 588 150 c 0xb4
 760 150 846 288 846 483 c 2
 846 915 l 1
 659 915 l 1
 659 1073 l 1
 1102 1073 l 1
 1102 172 l 1
 1268 172 l 1
 1268 10 l 1x74
 852 -8 l 1
 852 193 l 1
 807 48 647 -27 514 -27 c 0
 459 -27 367 -18 289 37 c 1
 309 -106 362 -281 362 -336 c 0xac
EndSplineSet
EndChar

StartChar: ordfeminine
Encoding: 127 170 126
Width: 1349
Flags: W
HStem: 598 127<322.912 512.111 859.231 973.756> 1133 231<281 379.746> 1423 90<302.538 574.777>
VStem: 119 196<732.103 899.19> 141 265<1170.04 1338.92> 629 211<829.348 1063 1145.2 1369.42> 989 101<739.092 956>
LayerCount: 2
Fore
SplineSet
864 596 m 0xee
 762 598 676 635 643 758 c 1
 586 662 477 598 348 598 c 0
 211 598 119 670 119 811 c 0xf6
 119 1083 633 1030 633 1239 c 0
 633 1370 545 1423 449 1423 c 0
 390 1423 326 1403 281 1364 c 1
 365 1364 404 1308 406 1255 c 0
 406 1253 406 1251 406 1247 c 0
 406 1184 354 1133 272 1133 c 0
 188 1133 141 1208 141 1286 c 2
 141 1286 141 1288 141 1290 c 0
 141 1427 311 1513 475 1513 c 0
 647 1513 840 1448 840 1221 c 2
 840 877 l 2
 840 822 842 733 918 733 c 0
 988 733 989 809 989 872 c 2
 989 956 l 1
 1090 956 l 1
 1090 868 l 2
 1090 647 989 596 870 596 c 0
 866 596 866 596 864 596 c 0xee
391 725 m 0
 471 725 629 824 629 924 c 2
 629 1063 l 1
 439 909 315 932 315 817 c 0
 315 766 336 725 391 725 c 0
EndSplineSet
EndChar

StartChar: ae
Encoding: 187 230 127
Width: 1728
Flags: W
HStem: -29 185<1120.57 1408.8> -29 168<349.607 592.98> 956 146<346.226 660.311 1125.17 1396.62>
VStem: 82 231<174.172 359.351> 117 297<700.401 888.887> 729 279<674 821.756> 1470 205<729 837.042>
LayerCount: 2
Fore
SplineSet
1255 -29 m 0xae
 1075 -29 892 78 831 215 c 1
 731 61 588 -29 369 -29 c 0
 197 -29 82 115 82 254 c 0x76
 82 463 231 553 729 641 c 1
 729 723 l 2
 729 873 663 956 518 956 c 2
 502 956 l 1
 443 954 385 938 338 911 c 1
 377 897 414 832 414 797 c 0
 414 711 338 655 264 655 c 0
 190 655 117 709 117 834 c 0
 117 984 303 1102 516 1102 c 0
 657 1102 809 1067 881 915 c 1
 967 1048 1115 1098 1260 1104 c 1
 1276 1104 l 2
 1559 1104 1675 830 1675 590 c 1
 995 516 l 1
 1001 287 1081 156 1276 156 c 0
 1405 156 1479 246 1536 379 c 1
 1683 313 l 1
 1634 102 1468 -29 1255 -29 c 0xae
1008 674 m 1
 1470 729 l 1
 1468 835 1403 963 1280 963 c 1
 1135 959 1026 858 1008 674 c 1
442 139 m 0
 602 139 704 275 772 369 c 1
 762 389 748 475 748 475 c 1
 398 418 313 370 313 264 c 0
 313 209 364 139 442 139 c 0
EndSplineSet
EndChar

StartChar: oslash
Encoding: 205 248 128
Width: 1189
Flags: W
HStem: -27 181<463.107 740.86> 936 166<466.98 741.047>
VStem: 68 270<301.872 772.996> 870 271<303.562 772.996>
LayerCount: 2
Fore
SplineSet
1112 1190 m 1
 1178 1137 l 1
 113 -111 l 1
 47 -57 l 1
 1112 1190 l 1
606 -27 m 0
 278 -27 68 218 68 537 c 0
 68 856 276 1102 604 1102 c 0
 932 1102 1141 856 1141 537 c 0
 1141 222 932 -27 606 -27 c 0
604 936 m 0
 379 936 338 702 338 524 c 0
 338 352 401 154 606 154 c 0
 809 154 870 356 870 524 c 0
 870 702 829 936 604 936 c 0
EndSplineSet
EndChar

StartChar: questiondown
Encoding: 148 191 129
Width: 1089
Flags: W
HStem: -20 149<451.628 767.391> 244 315<712.055 829> 1180 329<501.846 722.042>
VStem: 82 293<204.526 507.315> 446 330<1235.05 1454.79> 664 358<294.246 490.045>
LayerCount: 2
Fore
SplineSet
573 1063 m 1xf4
 659 1063 l 1
 659 701 375 577 375 354 c 0
 375 166 504 129 610 129 c 0
 692 129 792 160 829 244 c 1
 770 244 664 274 664 391 c 0
 664 489 731 559 825 559 c 0
 950 559 1018 461 1022 381 c 1
 1022 360 l 2
 1022 116 786 -20 557 -20 c 0
 360 -20 88 34 82 360 c 0
 82 362 82 365 82 367 c 0
 82 660 493 819 573 1063 c 1xf4
446 1346 m 0xf8
 446 1434 524 1509 612 1509 c 0
 702 1509 776 1434 776 1346 c 0
 776 1256 702 1180 612 1180 c 0
 524 1180 446 1256 446 1346 c 0xf8
EndSplineSet
EndChar

StartChar: logicalnot
Encoding: 129 172 130
Width: 993
Flags: W
HStem: 698 162<47 610>
VStem: 610 238<334 698>
LayerCount: 2
Fore
SplineSet
848 860 m 1
 848 334 l 1
 610 334 l 1
 610 698 l 1
 47 698 l 1
 47 860 l 1
 848 860 l 1
EndSplineSet
EndChar

StartChar: guillemotright
Encoding: 144 187 131
Width: 956
Flags: W
HStem: 1061 20G<102 145 539 582>
LayerCount: 2
Fore
SplineSet
102 238 m 1
 102 506 l 1
 342 672 l 1
 102 825 l 1
 102 1081 l 1
 188 1007 489 752 489 752 c 1
 489 575 l 1
 102 238 l 1
539 238 m 1
 539 506 l 1
 778 672 l 1
 539 825 l 1
 539 1081 l 1
 625 1007 926 752 926 752 c 1
 926 575 l 1
 539 238 l 1
EndSplineSet
EndChar

StartChar: OE
Encoding: 290 338 132
Width: 2314
Flags: W
HStem: 0 178<650.473 1049 1346 1970> 698 156<1346 1616> 1335 185<650.473 1049 1346 1970>
VStem: 82 326<492.233 1029.69> 1049 297<178 698 854 1335> 1616 174<444 698 854 1059> 1970 246<178 571 940 1335>
LayerCount: 2
Fore
SplineSet
408 762 m 0
 408 475 545 178 799 178 c 2
 1049 178 l 1
 1049 1335 l 1
 799 1335 l 2
 545 1335 408 1049 408 762 c 0
2216 571 m 1
 2216 0 l 1
 799 0 l 2
 320 0 82 377 82 762 c 0
 82 1145 320 1520 799 1520 c 2
 2216 1520 l 1
 2216 940 l 1
 1970 940 l 1
 1970 1335 l 1
 1346 1335 l 1
 1346 854 l 1
 1616 854 l 1
 1616 1059 l 1
 1790 1059 l 1
 1790 444 l 1
 1616 444 l 1
 1616 698 l 1
 1346 698 l 1
 1346 178 l 1
 1970 178 l 1
 1970 571 l 1
 2216 571 l 1
EndSplineSet
EndChar

StartChar: quoteleft
Encoding: 384 8216 133
Width: 813
Flags: W
HStem: 967 305<371.951 557.647> 1516 20G<452 466.256>
VStem: 231 131<1116 1358.19>
LayerCount: 2
Fore
SplineSet
510 1450 m 1
 447 1415 362 1339 362 1278 c 0
 362 1264 365 1237 371 1229 c 1
 391 1258 430 1272 467 1272 c 0
 557 1272 604 1200 604 1124 c 0
 604 1046 551 967 438 967 c 0
 342 967 231 1036 231 1196 c 0
 231 1300 286 1426 440 1528 c 0
 446 1530 451 1534 453 1536 c 1
 510 1450 l 1
EndSplineSet
EndChar

StartChar: quoteright
Encoding: 385 8217 134
Width: 813
Flags: W
HStem: 1231 305<277.97 464.049>
VStem: 473 131<1144.81 1387>
LayerCount: 2
Fore
SplineSet
326 1053 m 1
 389 1088 473 1164 473 1225 c 0
 473 1239 471 1266 465 1274 c 1
 445 1245 406 1231 369 1231 c 0
 279 1231 231 1302 231 1378 c 0
 231 1456 284 1536 397 1536 c 0
 493 1536 604 1467 604 1307 c 0
 604 1203 549 1077 395 975 c 0
 389 973 385 969 383 967 c 1
 326 1053 l 1
EndSplineSet
EndChar

StartChar: divide
Encoding: 204 247 135
Width: 913
Flags: W
HStem: 139 260<371.247 563.146> 528 156<125 788> 813 260<371.247 563.146>
VStem: 338 260<172.948 364.846 846.948 1038.85>
CounterMasks: 1 e0
LayerCount: 2
Fore
SplineSet
788 528 m 1
 125 528 l 1
 125 684 l 1
 788 684 l 1
 788 528 l 1
338 268 m 0
 338 340 395 399 467 399 c 0
 537 399 598 340 598 268 c 0
 598 198 537 139 467 139 c 0
 395 139 338 198 338 268 c 0
338 942 m 0
 338 1014 395 1073 467 1073 c 0
 537 1073 598 1014 598 942 c 0
 598 872 537 813 467 813 c 0
 395 813 338 872 338 942 c 0
EndSplineSet
EndChar

StartChar: currency
Encoding: 121 164 136
Width: 1189
Flags: W
HStem: 561 139<455.013 785.705> 1343 138<464.582 786.17>
VStem: 152 170<833.986 1194.1> 926 170<844.39 1202.1>
LayerCount: 2
Fore
SplineSet
621 1343 m 0
 437 1343 322 1194 322 1020 c 0
 322 809 447 700 623 700 c 0
 805 700 926 834 926 1020 c 0
 926 1215 805 1343 621 1343 c 0
1018 545 m 1
 909 653 l 1
 825 594 722 561 618 561 c 0
 514 561 414 592 334 651 c 1
 225 543 l 1
 137 629 l 1
 244 735 l 1
 187 809 152 905 152 1016 c 0
 152 1133 191 1233 254 1309 c 1
 137 1425 l 1
 223 1511 l 1
 342 1393 l 1
 422 1450 521 1481 623 1481 c 0
 727 1481 825 1450 905 1395 c 1
 1020 1509 l 1
 1106 1423 l 1
 995 1313 l 1
 1056 1235 1096 1135 1096 1016 c 0
 1096 905 1058 811 997 737 c 1
 1104 631 l 1
 1018 545 l 1
EndSplineSet
EndChar

StartChar: uniFB01
Encoding: 413 64257 137
Width: 1368
Flags: W
HStem: 0 172<53 266 528 680 780 926 1180 1354> 915 158<53 266 528 926> 1495 88<642.639 945.558>
VStem: 266 262<172 915 1073 1317.33> 926 254<172 915>
LayerCount: 2
Fore
SplineSet
680 0 m 1
 53 0 l 1
 53 172 l 1
 266 172 l 1
 266 915 l 1
 53 915 l 1
 53 1073 l 1
 266 1073 l 1
 266 1413 463 1583 768 1583 c 0
 1032 1583 1139 1425 1139 1323 c 0
 1139 1214 1065 1167 993 1167 c 0
 923 1167 854 1212 854 1292 c 0
 854 1368 926 1401 971 1407 c 1
 969 1456 888 1495 829 1495 c 0
 667 1495 528 1427 528 1237 c 2
 528 1073 l 1
 1180 1073 l 1
 1180 172 l 1
 1354 172 l 1
 1354 0 l 1
 780 0 l 1
 780 172 l 1
 926 172 l 1
 926 915 l 1
 528 915 l 1
 528 172 l 1
 680 172 l 1
 680 0 l 1
EndSplineSet
EndChar

StartChar: uniFB02
Encoding: 414 64258 138
Width: 1421
Flags: W
HStem: 0 117<74 268 483 649 776 950 1165 1380> 961 112<74 268 483 809> 1489 94<565.53 913.666>
VStem: 268 215<117 961 1073 1352.78> 950 215<117 1450.72>
LayerCount: 2
Fore
SplineSet
649 117 m 1
 649 0 l 1
 74 0 l 1
 74 117 l 1
 268 117 l 1
 268 961 l 1
 74 961 l 1
 74 1073 l 1
 268 1073 l 1
 268 1413 405 1583 686 1583 c 0
 917 1583 1165 1507 1165 1405 c 2
 1165 117 l 1
 1380 117 l 1
 1380 0 l 1
 776 0 l 1
 776 117 l 1
 950 117 l 1
 950 1403 l 1
 932 1471 801 1489 717 1489 c 0
 600 1489 477 1427 477 1243 c 2
 477 1073 l 1
 809 1073 l 1
 809 961 l 1
 483 961 l 1
 483 117 l 1
 649 117 l 1
EndSplineSet
EndChar

StartChar: periodcentered
Encoding: 140 183 139
Width: 813
Flags: W
HStem: 705 368<289.225 522.368>
VStem: 221 369<772.632 1006.2>
LayerCount: 2
Fore
SplineSet
590 889 m 0
 590 789 506 705 406 705 c 0
 306 705 221 789 221 889 c 0
 221 991 306 1073 406 1073 c 0
 506 1073 590 991 590 889 c 0
EndSplineSet
EndChar

StartChar: dotlessi
Encoding: 260 305 140
Width: 684
Flags: W
HStem: 0 172<49 248 502 676> 915 158<47 248>
VStem: 248 254<172 915>
LayerCount: 2
Fore
SplineSet
502 1073 m 1
 502 172 l 1
 676 172 l 1
 676 0 l 1
 49 0 l 1
 49 172 l 1
 248 172 l 1
 248 915 l 1
 47 915 l 1
 47 1073 l 1
 502 1073 l 1
EndSplineSet
EndChar

StartChar: circumflex
Encoding: 368 710 141
Width: 1269
Flags: W
HStem: 1169 463
VStem: 442 654
LayerCount: 2
Fore
SplineSet
772 1413 m 1
 694 1343 561 1169 561 1169 c 1
 442 1282 l 1
 768 1632 l 1
 1096 1276 l 1
 977 1165 l 1
 977 1165 850 1343 772 1413 c 1
EndSplineSet
EndChar

StartChar: tilde
Encoding: 374 732 142
Width: 1060
Flags: W
HStem: 1245 191<432.986 607.103> 1341 191<642.351 816.14>
VStem: 297 129<1444.69 1530> 823 129<1247 1332.31>
LayerCount: 2
Fore
SplineSet
758 1341 m 0x70
 686 1341 596 1245 477 1245 c 0
 354 1245 297 1352 297 1530 c 1
 426 1530 l 1
 426 1473 443 1436 492 1436 c 0xb0
 564 1436 653 1532 772 1532 c 0
 895 1532 952 1425 952 1247 c 1
 823 1247 l 1
 823 1304 807 1341 758 1341 c 0x70
EndSplineSet
EndChar

StartChar: macron
Encoding: 132 175 143
Width: 831
Flags: W
HStem: 1300 179<104 727>
VStem: 104 623<1300 1479>
LayerCount: 2
Fore
SplineSet
727 1300 m 1
 104 1300 l 1
 104 1479 l 1
 727 1479 l 1
 727 1300 l 1
EndSplineSet
EndChar

StartChar: breve
Encoding: 370 728 144
Width: 1126
Flags: W
HStem: 1225 149<486.655 696.464> 1500 20G<281 453 733 905>
VStem: 281 172<1408.53 1520> 733 172<1409.33 1520>
LayerCount: 2
Fore
SplineSet
905 1520 m 1
 899 1334 787 1225 594 1225 c 0
 401 1225 285 1332 281 1520 c 1
 453 1520 l 1
 453 1414 522 1374 594 1374 c 0
 664 1374 733 1414 733 1520 c 1
 905 1520 l 1
EndSplineSet
EndChar

StartChar: dotaccent
Encoding: 371 729 145
Width: 813
Flags: W
HStem: 1151 369<289.225 522.368>
VStem: 221 369<1218.63 1452.61>
LayerCount: 2
Fore
SplineSet
590 1335 m 0
 590 1235 506 1151 406 1151 c 0
 306 1151 221 1235 221 1335 c 0
 221 1437 306 1520 406 1520 c 0
 506 1520 590 1437 590 1335 c 0
EndSplineSet
EndChar

StartChar: ring
Encoding: 372 730 146
Width: 1189
Flags: W
HStem: 1208 86<497.917 660.643> 1534 84<498.733 660.211>
VStem: 356 117<1316.21 1511.9> 684 119<1314.99 1514.08>
LayerCount: 2
Fore
SplineSet
356 1415 m 0
 356 1517 433 1618 580 1618 c 0
 725 1618 803 1515 803 1413 c 0
 803 1311 725 1208 580 1208 c 0
 435 1208 356 1313 356 1415 c 0
580 1534 m 0
 529 1534 473 1493 473 1413 c 0
 473 1333 527 1294 578 1294 c 0
 631 1294 684 1335 684 1413 c 0
 684 1493 633 1534 580 1534 c 0
EndSplineSet
EndChar

StartChar: cedilla
Encoding: 141 184 147
Width: 337
Flags: W
HStem: -444 71<31.1445 122.43> -20 20G<207.5 307>
VStem: 59 248<-235.382 -73.0707> 154 153<-343.897 -244.101>
LayerCount: 2
Fore
SplineSet
307 -276 m 2xd0
 307 -405 37 -444 37 -444 c 1
 8 -373 l 1
 74 -361 154 -336 154 -307 c 0xd0
 154 -264 59 -217 59 -168 c 0xe0
 59 -96 147 0 268 0 c 0
 270 0 299 0 307 0 c 1
 307 -276 l 2xd0
EndSplineSet
EndChar

StartChar: hungarumlaut
Encoding: 375 733 148
Width: 1269
Flags: W
HStem: 1178 540
LayerCount: 2
Fore
SplineSet
1153 1591 m 1
 1087 1464 694 1178 694 1178 c 1
 625 1241 l 1
 752 1444 971 1718 971 1718 c 1
 1153 1591 l 1
752 1591 m 1
 686 1464 293 1178 293 1178 c 1
 223 1241 l 1
 350 1444 569 1718 569 1718 c 1
 752 1591 l 1
EndSplineSet
EndChar

StartChar: ogonek
Encoding: 373 731 149
Width: 337
Flags: W
HStem: -385 139<257.163 346> 0 31<294.975 334>
VStem: 16 199<-207.326 -66.3764>
LayerCount: 2
Fore
SplineSet
16 -174 m 0
 16 -31 193 31 334 31 c 1
 334 0 l 1
 273 -12 215 -74 215 -131 c 0
 215 -180 256 -230 373 -246 c 1
 346 -385 l 1
 168 -385 16 -278 16 -174 c 0
EndSplineSet
EndChar

StartChar: caron
Encoding: 369 711 150
Width: 1269
Flags: W
HStem: 1165 463
VStem: 442 654
LayerCount: 2
Fore
SplineSet
766 1384 m 1
 844 1454 977 1628 977 1628 c 1
 1096 1516 l 1
 770 1165 l 1
 442 1522 l 1
 561 1632 l 1
 561 1632 688 1454 766 1384 c 1
EndSplineSet
EndChar

StartChar: aogonek
Encoding: 218 261 151
Width: 1349
Flags: W
HStem: -385 139<1029.16 1118> -29 60<965 1106> -27 158<347.023 558.269 987 1146.25> 0 31<1045 1106> 975 129<360.2 660.005>
VStem: 88 244<142.346 337.989> 123 328<702 908.85> 717 262<269.096 557 656.861 917.953> 788 199<-207.326 -66.3764> 1176 133<165.789 446>
LayerCount: 2
Fore
SplineSet
1028 -29 m 0xcb40
 1024 -29 1022 -29 1020 -29 c 0xcb40
 893 -27 776 20 735 170 c 1
 665 53 531 -27 371 -27 c 0
 203 -27 88 64 88 238 c 0xad40
 88 574 723 508 723 764 c 0
 723 926 633 975 514 975 c 0
 461 975 405 965 358 942 c 1
 403 936 451 862 451 805 c 0
 451 803 451 801 451 797 c 0
 451 717 387 653 287 653 c 0
 183 653 123 727 123 823 c 2
 123 823 123 825 123 827 c 0
 125 997 334 1104 537 1104 c 0
 750 1104 979 1024 979 743 c 2
 979 317 l 2
 979 249 987 141 1079 141 c 0
 1165 141 1176 235 1176 313 c 2
 1176 446 l 1
 1309 446 l 1
 1309 307 l 2
 1309 35 1175 -29 1028 -29 c 0xcb40
424 131 m 0xad40
 522 131 717 252 717 375 c 2
 717 557 l 1
 481 369 332 385 332 244 c 0
 332 183 356 131 424 131 c 0xad40
788 -174 m 0x98c0
 788 -31 965 31 1106 31 c 1xc8c0
 1106 0 l 1
 1045 -12 987 -74 987 -131 c 0
 987 -180 1028 -230 1145 -246 c 1
 1118 -385 l 1
 940 -385 788 -278 788 -174 c 0x98c0
EndSplineSet
EndChar

StartChar: ebreve
Encoding: 65539 277 152
Width: 1150
Flags: W
HStem: -29 199<475.101 770.932> 547 129<346 823> 952 152<472.761 729.039> 1225 149<545.655 759.574> 1500 20G<340 512 793 965>
VStem: 68 268<328.28 547 676 768.369> 340 172<1408.53 1520> 793 172<1409.33 1520> 823 260<676 790.547>
LayerCount: 2
Fore
SplineSet
965 1520 m 1xff
 959 1334 846 1225 653 1225 c 0
 460 1225 344 1332 340 1520 c 1
 512 1520 l 1
 512 1414 581 1374 653 1374 c 0
 723 1374 793 1414 793 1520 c 1
 965 1520 l 1xff
598 -29 m 0
 295 -27 68 191 68 535 c 0
 68 852 291 1104 578 1104 c 0
 857 1104 1077 918 1083 547 c 1xfe80
 338 547 l 1
 338 537 336 526 336 514 c 0
 336 354 420 164 639 170 c 0
 772 174 866 279 907 379 c 1
 1055 313 l 1
 1000 86 809 -29 604 -29 c 0
 602 -29 600 -29 598 -29 c 0
602 952 m 0
 457 952 364 807 346 676 c 1
 823 676 l 1
 823 832 745 952 602 952 c 0
EndSplineSet
EndChar

StartChar: ch
Encoding: 65540 -1 154
Width: 2381
Flags: W
HStem: -29 164<470.152 786.515> 0 117<1071 1255 1470 1665 1743 1937 2152 2367> 590 278<768.581 883> 961 141<1647.71 1881.61> 989 115<487.979 756.6> 1413 123<906.822 1255>
VStem: 74 227<325.304 763.073> 729 311<639.603 828.232> 950 113<294.822 338.694> 1255 215<117 773.031 883 1413> 1937 215<117 896.674>
LayerCount: 2
Fore
SplineSet
1063 334 m 1xaee0
 1014 121 848 -29 592 -29 c 0
 305 -29 74 182 74 516 c 0
 74 821 258 1104 616 1104 c 0xaee0
 663 1104 711 1097 758 1083 c 1
 725 1142 682 1213 688 1276 c 0
 704 1440 823 1536 1278 1536 c 2
 1470 1536 l 1
 1470 883 l 1
 1550 1047 1702 1102 1821 1102 c 0
 1936 1102 2152 1067 2152 723 c 2
 2152 117 l 1
 2367 117 l 1
 2367 0 l 1
 1743 0 l 1
 1743 117 l 1
 1937 117 l 1
 1937 731 l 2
 1937 895 1866 961 1778 961 c 0
 1643 961 1470 803 1470 598 c 2
 1470 117 l 1
 1665 117 l 1
 1665 0 l 1
 1071 0 l 1
 1071 117 l 1
 1255 117 l 1
 1255 1413 l 1
 895 1413 815 1349 815 1243 c 0
 815 1180 858 1063 942 979 c 0
 997 924 1036 848 1040 752 c 1
 1040 684 989 590 883 590 c 0
 799 590 727 645 729 735 c 0x7760
 731 825 809 868 883 868 c 1
 842 934 760 989 651 989 c 0
 409 989 301 762 301 549 c 0
 301 293 426 135 637 135 c 0
 809 135 925 293 950 371 c 1
 1063 334 l 1xaee0
EndSplineSet
EndChar

StartChar: ck
Encoding: 65541 -1 155
Width: 2351
Flags: W
HStem: -29 164<470.152 786.515> 0 117<1087 1290 1505 1675> 590 278<768.581 883> 956 117<1735 1923 2144 2335> 989 115<487.979 756.6> 1413 123<906.822 1290>
VStem: 74 227<325.304 763.073> 729 311<639.603 828.232> 950 113<294.822 338.694> 1290 215<117 418 571 1413>
LayerCount: 2
Fore
SplineSet
1063 334 m 1xaec0
 1014 121 848 -29 592 -29 c 0
 305 -29 74 182 74 516 c 0
 74 821 258 1104 616 1104 c 0xaec0
 663 1104 711 1097 758 1083 c 1
 725 1142 682 1213 688 1276 c 0
 704 1440 823 1536 1278 1536 c 2
 1505 1536 l 1
 1505 571 l 1
 1923 956 l 1
 1735 956 l 1
 1735 1073 l 1
 2335 1073 l 1
 2335 956 l 1
 2144 956 l 1
 1798 629 l 1
 1937 434 2079 112 2263 139 c 0
 2288 143 2314 144 2345 158 c 1
 2374 23 l 1
 2302 -18 2252 -20 2195 -20 c 0
 2045 -20 1958 70 1872 199 c 1
 1671 545 l 1
 1505 418 l 1
 1505 117 l 1
 1675 117 l 1
 1675 0 l 1
 1087 0 l 1
 1087 117 l 1
 1290 117 l 1
 1290 1413 l 1
 1255 1413 l 2
 895 1413 815 1349 815 1243 c 0
 815 1180 858 1063 942 979 c 0
 997 924 1036 848 1040 752 c 1
 1040 684 989 590 883 590 c 0
 799 590 727 645 729 735 c 0x7740
 731 825 809 868 883 868 c 1
 842 934 760 989 651 989 c 0
 409 989 301 762 301 549 c 0
 301 293 426 135 637 135 c 0
 809 135 925 293 950 371 c 1
 1063 334 l 1xaec0
EndSplineSet
EndChar

StartChar: fj
Encoding: 423 -1 156
Width: 1318
Flags: W
HStem: -467 117<729.789 889.878> 0 172<53 266 528 756> 915 158<53 266 528 938> 1493 90<658.967 947.621>
VStem: 266 262<172 915 1073 1309.96> 481 303<-327.662 -124.33> 860 285<1204.12 1376.55> 938 256<-283.609 915>
LayerCount: 2
Fore
SplineSet
815 -467 m 0xf9
 608 -467 481 -387 481 -252 c 0
 481 -156 528 -80 643 -80 c 0
 735 -80 784 -149 784 -221 c 0
 784 -266 774 -314 727 -334 c 1
 727 -334 768 -350 813 -350 c 0
 872 -350 938 -299 938 -115 c 2
 938 915 l 1xf5
 528 915 l 1
 528 172 l 1
 756 172 l 1
 756 0 l 1
 53 0 l 1
 53 172 l 1
 266 172 l 1
 266 915 l 1
 53 915 l 1
 53 1073 l 1
 266 1073 l 1
 266 1419 481 1583 762 1583 c 0
 1012 1583 1139 1450 1145 1323 c 0
 1151 1214 1071 1167 999 1167 c 0
 929 1167 860 1212 860 1292 c 0xfa
 860 1368 932 1401 977 1407 c 1
 957 1464 901 1493 803 1493 c 0
 723 1493 528 1427 528 1237 c 2
 528 1073 l 1
 1194 1073 l 1
 1194 -84 l 2
 1194 -334 1042 -467 815 -467 c 0xf9
EndSplineSet
EndChar

StartChar: sh
Encoding: 65542 -1 157
Width: 2373
Flags: W
HStem: -31 156<285.778 666.755> 0 172<1012 1202 1458 1640 1735 1917 2173 2370> 924 178<1613.22 1845.83> 963 137<357.3 736.099> 1356 164<909.535 1202>
VStem: 66 272<197.395 358.328> 78 241<757.907 919.865> 690 273<724.503 886.773> 721 252<175.364 358.075> 1202 256<172 782.646 897 1356> 1917 256<172 844.878>
LayerCount: 2
Fore
SplineSet
528 -31 m 0x9ae0
 315 -31 66 33 66 256 c 0
 66 342 139 401 213 401 c 0
 276 401 338 363 338 279 c 0
 338 240 301 192 274 174 c 1
 340 141 415 125 485 125 c 0
 612 125 721 166 721 262 c 0x9ce0
 721 391 568 408 416 461 c 0
 232 524 78 578 78 799 c 0
 78 1020 333 1100 485 1100 c 0
 667 1100 963 1063 963 825 c 0
 963 739 889 682 815 682 c 0
 752 682 690 721 690 805 c 0x9b60
 690 850 731 897 758 905 c 1
 703 944 627 963 551 963 c 0
 430 963 319 934 319 842 c 0
 319 750 397 735 551 688 c 0
 737 631 973 575 973 311 c 0
 973 59 731 -31 528 -31 c 0x9ae0
2173 717 m 2
 2173 172 l 1
 2370 172 l 1
 2370 0 l 1
 1735 0 l 1
 1735 172 l 1
 1917 172 l 1
 1917 702 l 2
 1917 837 1835 924 1737 924 c 0
 1512 924 1458 732 1458 537 c 2
 1458 172 l 1
 1640 172 l 1
 1640 0 l 1
 1012 0 l 1
 1012 172 l 1
 1202 172 l 1
 1202 1356 l 1
 1120 1356 l 2
 846 1356 776 1247 905 977 c 1
 872 997 772 1061 774 1057 c 1
 586 1389 774 1520 1190 1520 c 2
 1458 1520 l 1
 1458 897 l 1
 1542 1061 1686 1102 1815 1102 c 0x6860
 1930 1102 2173 1061 2173 717 c 2
EndSplineSet
EndChar

StartChar: sk
Encoding: 65543 -1 158
Width: 2381
Flags: W
HStem: -31 156<294.62 675.385> -29 197<2100.01 2322.44> 0 172<1067 1251 1507 1657> 915 158<1679 1860 2105 2298> 963 137<366.075 744.419> 1356 164<910.928 1190>
VStem: 74 272<197.395 358.328> 86 242<757.907 919.865> 698 273<724.503 886.773> 729 252<175.364 358.075> 1251 256<172 410 588 1356>
LayerCount: 2
Fore
SplineSet
1507 1522 m 1x2420
 1507 588 l 1
 1507 588 1743 809 1860 915 c 1
 1679 915 l 1
 1679 1073 l 1
 2298 1073 l 1
 2298 915 l 1
 2105 915 l 1
 1798 629 l 1
 1800 627 1976 356 2058 256 c 0
 2097 207 2141 168 2202 168 c 0
 2233 168 2277 170 2322 188 c 1
 2335 2 l 1
 2263 -29 2207 -29 2150 -29 c 0x5420
 2015 -29 1929 45 1849 174 c 2
 1640 512 l 1
 1507 410 l 1
 1507 172 l 1
 1657 172 l 1
 1657 0 l 1
 1067 0 l 1
 1067 172 l 1
 1251 172 l 1
 1251 1356 l 1
 1507 1522 l 1x2420
537 -31 m 0x8d60
 324 -31 74 33 74 256 c 0
 74 342 147 401 221 401 c 0
 284 401 346 363 346 279 c 0
 346 240 310 192 283 174 c 1
 349 141 424 125 494 125 c 0
 621 125 729 166 729 262 c 0x8e60
 729 391 576 408 424 461 c 0
 240 524 86 578 86 799 c 0
 86 1020 342 1100 494 1100 c 0
 676 1100 971 1063 971 825 c 0
 971 739 897 682 823 682 c 0
 760 682 698 721 698 805 c 0x8da0
 698 850 739 897 766 905 c 1
 711 944 635 963 559 963 c 0
 438 963 328 934 328 842 c 0
 328 750 405 735 559 688 c 0
 745 631 981 575 981 311 c 0
 981 59 740 -31 537 -31 c 0x8d60
1427 1356 m 1
 1507 1520 l 1
 1190 1520 l 2
 774 1520 594 1389 782 1057 c 1
 780 1061 880 997 913 977 c 1
 784 1247 846 1356 1120 1356 c 2
 1427 1356 l 1
EndSplineSet
EndChar

StartChar: tt
Encoding: 65544 -1 159
Width: 1554
Flags: W
HStem: -27 195<448.918 607.506 1185.92 1344.57> 936 137<432 894.453 1169 1462> 936 108<-37 75.0842>
VStem: 168 264<187.175 936> 348 84<1399.38 1625.86> 633 145<190.126 451> 905 264<187.175 934> 1085 84<1390.75 1625.86> 1370 146<190.126 451>
LayerCount: 2
Fore
SplineSet
905 936 m 1xa680
 432 936 l 1xd680
 432 305 l 2
 432 270 428 168 537 168 c 0
 625 168 633 283 633 373 c 2
 633 451 l 1
 778 451 l 1
 778 433 778 411 778 393 c 0
 778 155 729 -27 461 -27 c 0
 332 -27 168 64 168 279 c 2
 168 936 l 1
 -37 936 l 1
 -37 1044 l 1xb680
 264 1132 301 1335 348 1591 c 0
 352 1614 373 1626 393 1626 c 0
 413 1626 432 1614 432 1591 c 2
 432 1073 l 1
 739 1073 l 2
 995 1073 1038 1335 1085 1591 c 0
 1089 1614 1110 1626 1130 1626 c 0
 1150 1626 1169 1614 1169 1591 c 2
 1169 1073 l 1
 1462 1073 l 1xcd80
 1462 934 l 1
 1169 934 l 1
 1169 305 l 2
 1169 270 1165 168 1274 168 c 0
 1362 168 1370 283 1370 373 c 2
 1370 451 l 1
 1516 451 l 1
 1516 433 1516 411 1516 393 c 0
 1516 155 1466 -27 1198 -27 c 0
 1069 -27 905 64 905 279 c 2
 905 936 l 1xa680
EndSplineSet
EndChar

StartChar: ff
Encoding: 421 64256 160
Width: 1406
Flags: W
HStem: 0 117<90 268 483 614 709 860 1075 1268> 961 112<74 268 483 860 1075 1323> 1499 84<552.48 827.176 1149.52 1395.5>
VStem: 268 215<117 961 1073 1352.78> 860 215<117 961 1073 1224.66> 1419 162<1415 1468.41>
LayerCount: 2
Fore
SplineSet
477 1073 m 1
 860 1073 l 1
 860 1206 l 1
 790 1226 760 1276 760 1329 c 0
 760 1378 784 1429 829 1464 c 1
 813 1478 756 1499 678 1499 c 0
 561 1499 477 1427 477 1243 c 2
 477 1073 l 1
614 0 m 1
 90 0 l 1
 90 117 l 1
 268 117 l 1
 268 961 l 1
 74 961 l 1
 74 1073 l 1
 268 1073 l 1
 268 1413 393 1583 674 1583 c 0
 819 1583 928 1524 979 1454 c 1
 1059 1540 1163 1583 1247 1583 c 0
 1509 1583 1581 1442 1581 1325 c 0
 1581 1216 1507 1159 1425 1159 c 0
 1355 1159 1296 1214 1296 1294 c 0
 1296 1370 1364 1415 1419 1415 c 1
 1417 1468 1341 1499 1278 1499 c 0
 1161 1499 1069 1427 1069 1243 c 2
 1069 1073 l 1
 1323 1073 l 1
 1323 961 l 1
 1075 961 l 1
 1075 117 l 1
 1268 117 l 1
 1268 0 l 1
 709 0 l 1
 709 117 l 1
 860 117 l 1
 860 961 l 1
 483 961 l 1
 483 117 l 1
 614 117 l 1
 614 0 l 1
EndSplineSet
EndChar

StartChar: ffi
Encoding: 422 64259 161
Width: 1933
Flags: W
HStem: 0 117<84 268 483 629 723 903 1118 1286 1372 1528 1743 1919> 961 112<74 268 483 903 1118 1528> 1499 84<578.598 869.513 1237.28 1549.89>
VStem: 268 215<117 961 1073 1330.86> 903 215<117 961 1073 1224.66> 1528 215<117 961>
LayerCount: 2
Fore
SplineSet
477 1073 m 1
 903 1073 l 1
 903 1206 l 1
 833 1226 803 1276 803 1329 c 0
 803 1378 827 1429 872 1464 c 1
 856 1478 797 1499 719 1499 c 0
 602 1499 477 1427 477 1243 c 2
 477 1073 l 1
629 0 m 1
 84 0 l 1
 84 117 l 1
 268 117 l 1
 268 961 l 1
 74 961 l 1
 74 1073 l 1
 268 1073 l 1
 268 1413 434 1583 715 1583 c 0
 860 1583 971 1524 1022 1454 c 1
 1102 1540 1208 1583 1364 1583 c 0
 1626 1583 1737 1444 1737 1327 c 0
 1737 1218 1669 1159 1587 1159 c 0
 1517 1159 1452 1214 1452 1294 c 0
 1452 1370 1526 1415 1581 1415 c 1
 1579 1468 1458 1499 1395 1499 c 0
 1278 1499 1112 1427 1112 1243 c 2
 1112 1073 l 1
 1743 1073 l 1
 1743 117 l 1
 1919 117 l 1
 1919 0 l 1
 1372 0 l 1
 1372 117 l 1
 1528 117 l 1
 1528 961 l 1
 1118 961 l 1
 1118 117 l 1
 1286 117 l 1
 1286 0 l 1
 723 0 l 1
 723 117 l 1
 903 117 l 1
 903 961 l 1
 483 961 l 1
 483 117 l 1
 629 117 l 1
 629 0 l 1
EndSplineSet
EndChar

StartChar: ffl
Encoding: 65545 64260 162
Width: 2084
Flags: W
HStem: 0 172<53 266 528 922 1184 1624 1880 2081> 915 158<53 266 528 922 1184 1419> 1491 92<621.185 861.149 1263.52 1617.78>
VStem: 266 262<172 915 1073 1341.95> 811 373<1193.23 1379.11> 922 262<172 915 1073 1171> 1624 256<172 1473.62>
LayerCount: 2
Fore
SplineSet
53 0 m 1xf2
 53 172 l 1
 266 172 l 1
 266 915 l 1
 53 915 l 1
 53 1073 l 1
 266 1073 l 1
 266 1413 417 1583 698 1583 c 0
 860 1583 997 1530 1044 1450 c 1
 1114 1554 1271 1585 1427 1585 c 0
 1658 1585 1880 1527 1880 1425 c 2
 1880 172 l 1
 2081 172 l 1
 2081 0 l 1
 53 0 l 1xf2
1184 172 m 1xf6
 1624 172 l 1
 1624 1466 l 1
 1550 1480 1485 1489 1430 1489 c 0
 1262 1489 1184 1417 1184 1249 c 2xfa
 1184 1073 l 1
 1419 1073 l 1
 1419 915 l 1
 1184 915 l 1
 1184 172 l 1xf6
922 1073 m 1xf6
 922 1087 l 2xf6
 922 1116 924 1144 926 1171 c 1
 867 1171 811 1210 811 1286 c 0xfa
 811 1362 856 1389 895 1401 c 1
 866 1467 798 1491 739 1491 c 0
 659 1491 528 1427 528 1237 c 2
 528 1073 l 1
 922 1073 l 1xf6
528 172 m 1
 922 172 l 1
 922 915 l 1
 528 915 l 1
 528 172 l 1
EndSplineSet
EndChar

StartChar: grave
Encoding: 86 96 174
Width: 1269
Flags: W
HStem: 1180 434
VStem: 322 608
LayerCount: 2
Fore
SplineSet
322 1430 m 1
 455 1614 l 1
 455 1614 748 1407 930 1251 c 1
 879 1180 l 1
 879 1180 422 1328 322 1430 c 1
EndSplineSet
EndChar

StartChar: uni0237
Encoding: 367 567 328
Width: 634
Flags: W
HStem: -467 117<53.7893 213.878> 915 158<29 262>
VStem: -195 304<-326.473 -124.33> 262 256<-283.609 915>
LayerCount: 2
Fore
SplineSet
139 -467 m 0
 -68 -467 -195 -387 -195 -252 c 0
 -195 -156 -148 -80 -33 -80 c 0
 59 -80 109 -149 109 -221 c 0
 109 -266 98 -314 51 -334 c 1
 51 -334 92 -350 137 -350 c 0
 196 -350 262 -299 262 -115 c 2
 262 915 l 1
 29 915 l 1
 29 1073 l 1
 518 1073 l 1
 518 -84 l 2
 518 -334 366 -467 139 -467 c 0
EndSplineSet
EndChar

StartChar: uni030F
Encoding: 377 783 329
Width: 1269
Flags: W
LayerCount: 2
Fore
SplineSet
100 1591 m 5
 166 1464 559 1178 559 1178 c 5
 629 1241 l 5
 502 1444 283 1718 283 1718 c 5
 100 1591 l 5
502 1591 m 5
 568 1464 961 1178 961 1178 c 5
 1030 1241 l 5
 903 1444 684 1718 684 1718 c 5
 502 1591 l 5
EndSplineSet
EndChar

StartChar: oe
Encoding: 291 339 344
Width: 1955
VWidth: 0
Flags: W
HStem: -29 199<1276.68 1575.93> -27 181<463.107 746.956> 547 129<1151 1628> 936 166<466.98 744.709> 952 152<1277.64 1533.58>
VStem: 68 270<301.872 772.996> 870 271<325.628 540.843> 1628 260<676 790.547>
LayerCount: 2
Fore
SplineSet
1407 952 m 0x2f
 1262 952 1169 807 1151 676 c 1
 1628 676 l 1
 1628 832 1550 952 1407 952 c 0x2f
604 936 m 0x77
 379 936 338 702 338 524 c 0
 338 352 401 154 606 154 c 0
 809 154 870 356 870 524 c 0
 870 702 829 936 604 936 c 0x77
606 -27 m 0
 278 -27 68 218 68 537 c 0
 68 856 276 1102 604 1102 c 0x77
 778 1102 918 1026 1008 905 c 1
 1096 1028 1230 1104 1382 1104 c 0
 1661 1104 1882 918 1888 547 c 1
 1143 547 l 1
 1143 537 1141 526 1141 514 c 0
 1141 354 1225 164 1444 170 c 0
 1577 174 1671 279 1712 379 c 1
 1860 313 l 1
 1805 86 1614 -29 1409 -29 c 0
 1407 -29 1405 -29 1403 -29 c 0xaf
 1237 -27 1096 43 1004 166 c 1
 914 47 776 -27 606 -27 c 0
EndSplineSet
EndChar

StartChar: uni0307
Encoding: 376 775 353
Width: 813
Flags: W
HStem: 1151 369<289.225 522.368>
VStem: 221 369<1218.63 1452.61>
LayerCount: 2
Fore
SplineSet
590 1335 m 0
 590 1235 506 1151 406 1151 c 0
 306 1151 221 1235 221 1335 c 0
 221 1437 306 1520 406 1520 c 0
 506 1520 590 1437 590 1335 c 0
EndSplineSet
EndChar

StartChar: kgreenlandic
Encoding: 267 312 355
Width: 1312
Flags: W
HStem: -29 197<1061.88 1283.94> 0 172<41 225 481 631> 915 158<23 225 653 834 1079 1266>
VStem: 225 256<172 399 575 909>
LayerCount: 2
Fore
SplineSet
481 1073 m 1x70
 481 575 l 5
 481 575 717 804 834 915 c 1
 653 915 l 1
 653 1073 l 1
 1266 1073 l 1
 1266 915 l 1
 1079 915 l 1
 772 618 l 5
 774 616 938 354 1020 256 c 0
 1059 207 1102 168 1163 168 c 0
 1194 168 1239 170 1284 188 c 1
 1296 2 l 1
 1224 -29 1169 -29 1112 -29 c 0xb0
 977 -29 891 45 811 174 c 1
 614 502 l 5
 481 399 l 5
 481 172 l 1
 631 172 l 1
 631 0 l 1
 41 0 l 1
 41 172 l 1
 225 172 l 1
 225 909 l 1
 23 909 l 1
 23 1073 l 1
 481 1073 l 1x70
EndSplineSet
EndChar

StartChar: guillemotleft
Encoding: 128 171 361
Width: 956
Flags: W
LayerCount: 2
Fore
SplineSet
926 238 m 1
 926 506 l 1
 686 672 l 1
 926 825 l 1
 926 1081 l 1
 840 1007 539 752 539 752 c 1
 539 575 l 1
 926 238 l 1
489 238 m 1
 489 506 l 1
 250 672 l 1
 489 825 l 1
 489 1081 l 1
 403 1007 102 752 102 752 c 1
 102 575 l 1
 489 238 l 1
EndSplineSet
EndChar

StartChar: uni00AD
Encoding: 130 173 362
Width: 894
Flags: W
HStem: 698 162<47 848>
LayerCount: 2
Fore
SplineSet
848 860 m 1
 848 698 l 1
 47 698 l 1
 47 860 l 1
 848 860 l 1
EndSplineSet
EndChar

StartChar: quotedblleft
Encoding: 387 8220 364
Width: 1095
Flags: W
HStem: 967 305<309.952 496.647 756.951 942.647> 1516 20G<390 404.488 837 851.256>
VStem: 170 131<1116 1358.19> 616 132<1116 1358.19>
LayerCount: 2
Fore
SplineSet
895 1450 m 1
 832 1415 748 1339 748 1278 c 0
 748 1264 750 1237 756 1229 c 1
 776 1258 815 1272 852 1272 c 0
 942 1272 989 1200 989 1124 c 0
 989 1046 936 967 823 967 c 0
 727 967 616 1036 616 1196 c 0
 616 1300 671 1426 825 1528 c 0
 831 1530 836 1534 838 1536 c 1
 895 1450 l 1
449 1450 m 1
 386 1415 301 1339 301 1278 c 0
 301 1264 303 1237 309 1229 c 1
 329 1258 369 1272 406 1272 c 0
 496 1272 543 1200 543 1124 c 0
 543 1046 490 967 377 967 c 0
 281 967 170 1036 170 1196 c 0
 170 1300 225 1426 379 1528 c 0
 385 1530 389 1534 391 1536 c 1
 449 1450 l 1
EndSplineSet
EndChar

StartChar: quotedblright
Encoding: 388 8221 365
Width: 1087
Flags: W
HStem: 1231 305<216.353 402.049 656.97 843.049>
VStem: 412 131<1144.81 1387> 852 131<1144.81 1387>
LayerCount: 2
Fore
SplineSet
705 1053 m 1
 768 1088 852 1164 852 1225 c 0
 852 1239 850 1266 844 1274 c 1
 824 1245 785 1231 748 1231 c 0
 658 1231 610 1302 610 1378 c 0
 610 1456 663 1536 776 1536 c 0
 872 1536 983 1467 983 1307 c 0
 983 1203 928 1077 774 975 c 0
 768 973 764 969 762 967 c 1
 705 1053 l 1
264 1053 m 1
 327 1088 412 1164 412 1225 c 0
 412 1239 409 1266 403 1274 c 1
 383 1245 344 1231 307 1231 c 0
 217 1231 170 1302 170 1378 c 0
 170 1456 223 1536 336 1536 c 0
 432 1536 543 1467 543 1307 c 0
 543 1203 488 1077 334 975 c 0
 328 973 324 969 322 967 c 1
 264 1053 l 1
EndSplineSet
EndChar

StartChar: guilsinglright
Encoding: 396 8250 366
Width: 538
Flags: W
HStem: 1061 20G<102 145>
VStem: 102 387
LayerCount: 2
Fore
SplineSet
102 238 m 1
 102 506 l 1
 342 672 l 1
 102 825 l 1
 102 1081 l 1
 188 1007 489 752 489 752 c 1
 489 575 l 1
 102 238 l 1
EndSplineSet
EndChar

StartChar: guilsinglleft
Encoding: 395 8249 367
Width: 538
Flags: W
LayerCount: 2
Fore
SplineSet
446 238 m 5
 446 506 l 5
 207 672 l 5
 446 825 l 5
 446 1081 l 5
 360 1007 59 752 59 752 c 5
 59 575 l 5
 446 238 l 5
EndSplineSet
EndChar

StartChar: uni0311
Encoding: 378 785 370
Width: 1126
Flags: W
HStem: 1370 150<485.55 701.319>
VStem: 281 172<1225 1336.47> 733 172<1225 1335.67>
LayerCount: 2
Fore
SplineSet
905 1225 m 1
 899 1411 787 1520 594 1520 c 0
 401 1520 285 1413 281 1225 c 1
 453 1225 l 1
 453 1331 522 1370 594 1370 c 0
 664 1370 733 1331 733 1225 c 1
 905 1225 l 1
EndSplineSet
EndChar

StartChar: uni00B9
Encoding: 142 185 371
Width: 903
Flags: W
HStem: 741 115<260 389 565 690>
VStem: 389 176<856 1389>
LayerCount: 2
Fore
SplineSet
260 741 m 1
 260 856 l 1
 389 856 l 1
 389 1389 l 1
 260 1354 l 1
 260 1483 l 1
 565 1561 l 1
 565 856 l 1
 690 856 l 1
 690 741 l 1
 260 741 l 1
EndSplineSet
EndChar

StartChar: quotesinglbase
Encoding: 386 8218 372
Width: 813
Flags: W
HStem: 0 305<277.97 464.049>
VStem: 473 131<-86.1948 156>
LayerCount: 2
Fore
SplineSet
326 -178 m 1
 389 -143 473 -67 473 -6 c 0
 473 8 471 35 465 43 c 1
 445 14 406 0 369 0 c 0
 279 0 231 71 231 147 c 0
 231 225 284 305 397 305 c 0
 493 305 604 236 604 76 c 0
 604 -28 549 -154 395 -256 c 0
 389 -258 385 -262 383 -264 c 1
 326 -178 l 1
EndSplineSet
EndChar

StartChar: quotedblbase
Encoding: 389 8222 373
Width: 1132
Flags: W
HStem: 0 305<216.353 402.049 656.97 843.049>
VStem: 412 131<-86.1948 156> 852 131<-86.1948 156>
LayerCount: 2
Fore
SplineSet
705 -178 m 5
 768 -143 852 -67 852 -6 c 4
 852 8 850 35 844 43 c 5
 824 14 785 0 748 0 c 4
 658 0 610 71 610 147 c 4
 610 225 663 305 776 305 c 4
 872 305 983 236 983 76 c 4
 983 -28 928 -154 774 -256 c 4
 768 -258 764 -262 762 -264 c 5
 705 -178 l 5
264 -178 m 5
 327 -143 412 -67 412 -6 c 4
 412 8 409 35 403 43 c 5
 383 14 344 0 307 0 c 4
 217 0 170 71 170 147 c 4
 170 225 223 305 336 305 c 4
 432 305 543 236 543 76 c 4
 543 -28 488 -154 334 -256 c 4
 328 -258 324 -262 322 -264 c 5
 264 -178 l 5
EndSplineSet
EndChar

StartChar: fraction
Encoding: 397 8260 378
Width: 1536
Flags: W
LayerCount: 2
Fore
SplineSet
1235 1509 m 1
 1350 1419 l 1
 285 -61 l 1
 170 29 l 1
 1235 1509 l 1
EndSplineSet
EndChar

StartChar: uni2074
Encoding: 398 8308 379
Width: 1026
Flags: W
HStem: 0 115<379 524 700 831> 250 115<319 524 700 831>
VStem: 524 176<115 250 365 686>
LayerCount: 2
Fore
SplineSet
524 365 m 1
 524 686 l 1
 319 365 l 1
 524 365 l 1
831 115 m 1
 831 0 l 1
 379 0 l 1
 379 115 l 1
 524 115 l 1
 524 250 l 1
 176 250 l 1
 176 373 l 1
 492 815 l 1
 700 815 l 1
 700 365 l 1
 831 365 l 1
 831 250 l 1
 700 250 l 1
 700 115 l 1
 831 115 l 1
EndSplineSet
EndChar

StartChar: perthousand
Encoding: 394 8240 380
Width: 1828
Flags: W
HStem: -37 133<1286.89 1521.19> 598 137<1282.63 1520.98> 739 133<332.886 567.038> 1374 137<328.631 566.835>
VStem: 47 203<963.762 1292.43> 647 201<958.952 1291.56> 1001 203<187.762 516.428> 1602 200<182.952 515.557>
LayerCount: 2
Fore
SplineSet
250 1130 m 0
 250 1001 316 872 451 872 c 0
 584 872 647 999 647 1128 c 0
 647 1251 590 1374 449 1374 c 0
 308 1374 250 1253 250 1130 c 0
47 1124 m 0
 47 1317 181 1511 449 1511 c 0
 715 1511 848 1317 848 1122 c 0
 848 932 719 739 451 739 c 0
 179 739 47 931 47 1124 c 0
1001 348 m 0
 1001 541 1135 735 1403 735 c 0
 1669 735 1802 541 1802 346 c 0
 1802 156 1673 -37 1405 -37 c 0
 1133 -37 1001 155 1001 348 c 0
1204 354 m 0
 1204 225 1270 96 1405 96 c 0
 1538 96 1602 223 1602 352 c 0
 1602 475 1544 598 1403 598 c 0
 1262 598 1204 477 1204 354 c 0
1362 1513 m 1
 1501 1411 l 1
 459 -70 l 1
 319 33 l 1
 1362 1513 l 1
EndSplineSet
EndChar

StartChar: florin
Encoding: 328 402 381
Width: 835
Flags: W
HStem: 0 172<43 256 518 745> 915 158<43 256 518 754> 1493 90<603.342 828.672>
VStem: 256 262<172 915 1073 1341.95>
LayerCount: 2
Fore
SplineSet
256 915 m 1
 43 915 l 1
 43 1073 l 1
 256 1073 l 1
 256 1413 397 1583 678 1583 c 0
 909 1583 1016 1425 1016 1323 c 0
 1016 1214 942 1167 870 1167 c 0
 800 1167 731 1212 731 1292 c 0
 731 1368 803 1401 848 1407 c 1
 846 1456 778 1493 719 1493 c 0
 639 1493 518 1427 518 1237 c 2
 518 1073 l 1
 754 1073 l 1
 754 915 l 1
 518 915 l 1
 518 172 l 1
 745 172 l 1
 745 0 l 1
 43 0 l 1
 43 172 l 1
 256 172 l 1
 256 915 l 1
EndSplineSet
EndChar

StartChar: uni0326
Encoding: 379 806 382
Width: 813
Flags: W
HStem: -410 306<277.97 464.049>
VStem: 473 131<-496.195 -254>
LayerCount: 2
Fore
SplineSet
326 -588 m 5
 389 -553 473 -477 473 -416 c 4
 473 -402 471 -375 465 -367 c 5
 445 -396 406 -410 369 -410 c 4
 279 -410 231 -338 231 -262 c 4
 231 -184 284 -104 397 -104 c 4
 493 -104 604 -174 604 -334 c 4
 604 -438 549 -564 395 -666 c 4
 389 -668 385 -672 383 -674 c 5
 326 -588 l 5
EndSplineSet
EndChar

StartChar: integral
Encoding: 407 8747 383
Width: 835
Flags: W
HStem: 0 172<43 256 518 745> 915 158<43 256 518 754> 1493 90<603.342 828.672>
VStem: 256 262<172 915 1073 1341.95>
LayerCount: 2
Fore
SplineSet
256 915 m 1
 43 915 l 1
 43 1073 l 1
 256 1073 l 1
 256 1413 397 1583 678 1583 c 0
 909 1583 1016 1425 1016 1323 c 0
 1016 1214 942 1167 870 1167 c 0
 800 1167 731 1212 731 1292 c 0
 731 1368 803 1401 848 1407 c 1
 846 1456 778 1493 719 1493 c 0
 639 1493 518 1427 518 1237 c 2
 518 1073 l 1
 754 1073 l 1
 754 915 l 1
 518 915 l 1
 518 172 l 1
 745 172 l 1
 745 0 l 1
 43 0 l 1
 43 172 l 1
 256 172 l 1
 256 915 l 1
EndSplineSet
EndChar

StartChar: uni2206
Encoding: 402 8710 384
Width: 921
Flags: W
LayerCount: 2
Fore
SplineSet
401 1178 m 1
 598 1178 l 1
 971 315 l 1
 760 315 l 1
 498 975 l 1
 219 315 l 1
 12 315 l 1
 401 1178 l 1
EndSplineSet
EndChar

StartChar: lozenge
Encoding: 412 9674 385
Width: 921
Flags: W
LayerCount: 2
Fore
SplineSet
401 1178 m 1
 598 1178 l 1
 971 315 l 1
 760 315 l 1
 498 975 l 1
 219 315 l 1
 12 315 l 1
 401 1178 l 1
EndSplineSet
EndChar

StartChar: less
Encoding: 50 60 386
Width: 921
Flags: W
LayerCount: 2
Fore
SplineSet
90 801 m 1
 90 604 l 1
 891 258 l 1
 891 449 l 1
 313 715 l 1
 891 989 l 1
 891 1176 l 1
 90 801 l 1
EndSplineSet
EndChar

StartChar: lessequal
Encoding: 410 8804 387
Width: 921
Flags: W
LayerCount: 2
Fore
SplineSet
90 801 m 1
 90 604 l 1
 891 258 l 1
 891 449 l 1
 313 715 l 1
 891 989 l 1
 891 1176 l 1
 90 801 l 1
EndSplineSet
EndChar

StartChar: greaterequal
Encoding: 411 8805 388
Width: 921
Flags: W
LayerCount: 2
Fore
SplineSet
891 801 m 1
 891 604 l 1
 90 258 l 1
 90 449 l 1
 668 715 l 1
 90 989 l 1
 90 1176 l 1
 891 801 l 1
EndSplineSet
EndChar

StartChar: notequal
Encoding: 409 8800 389
Width: 927
Flags: W
HStem: 350 148<96 831> 727 147<96 831>
LayerCount: 2
Fore
SplineSet
96 498 m 1
 831 498 l 1
 831 350 l 1
 96 350 l 1
 96 498 l 1
96 874 m 1
 831 874 l 1
 831 727 l 1
 96 727 l 1
 96 874 l 1
EndSplineSet
EndChar

StartChar: approxequal
Encoding: 408 8776 390
Width: 1060
Flags: W
HStem: 752 196<628.42 855.485> 866 207<200.029 446.994>
VStem: 45 145<752 857.824> 870 146<955.444 1071>
LayerCount: 2
Fore
SplineSet
788 948 m 0xb0
 702 948 455 1073 303 1073 c 0x70
 127 1073 45 1006 45 752 c 1
 190 752 l 1xb0
 190 846 219 866 272 866 c 0x70
 356 866 602 752 758 752 c 0
 932 752 1016 815 1016 1071 c 1
 870 1071 l 1
 870 977 841 948 788 948 c 0xb0
EndSplineSet
EndChar

StartChar: Euro
Encoding: 399 8364 391
Width: 1470
Flags: W
HStem: -27 211<704.985 1057.83> 541 147<-33 735> 836 147<-33 735> 903 320<1059.22 1171> 1358 192<697.503 1066.16>
VStem: 131 338<693.349 827.884> 1010 366<971.916 1173.05> 1262 184<416.105 541>
LayerCount: 2
Fore
SplineSet
-33 688 m 1xcc
 735 688 l 1
 735 541 l 1
 -33 541 l 1
 -33 688 l 1xcc
-33 983 m 1xec
 735 983 l 1
 735 836 l 1
 -33 836 l 1
 -33 983 l 1xec
1446 541 m 1xdd
 1395 191 1182 -27 801 -27 c 0
 383 -27 131 348 131 776 c 0
 131 1173 413 1550 829 1550 c 0
 1079 1550 1376 1401 1376 1090 c 0
 1376 1006 1309 903 1180 903 c 0
 1086 903 1016 955 1010 1049 c 0
 1010 1053 1010 1059 1010 1063 c 0xde
 1010 1178 1108 1223 1171 1223 c 1
 1116 1305 1026 1356 858 1358 c 0
 590 1362 469 1048 469 772 c 0
 469 481 600 184 872 184 c 0
 1130 184 1219 375 1262 541 c 1
 1446 541 l 1xdd
EndSplineSet
EndChar

StartChar: ordmasculine
Encoding: 143 186 392
Width: 1208
Flags: W
HStem: -27 181<463.107 740.86> 936 166<466.98 741.047>
VStem: 68 270<301.872 772.996> 870 271<303.562 772.996>
LayerCount: 2
Fore
SplineSet
606 -27 m 0
 278 -27 68 218 68 537 c 0
 68 856 276 1102 604 1102 c 0
 932 1102 1141 856 1141 537 c 0
 1141 222 932 -27 606 -27 c 0
604 936 m 0
 379 936 338 702 338 524 c 0
 338 352 401 154 606 154 c 0
 809 154 870 356 870 524 c 0
 870 702 829 936 604 936 c 0
EndSplineSet
EndChar

StartChar: quotesingle
Encoding: 29 39 394
Width: 360
Flags: W
HStem: 891 645<150.196 222.894>
VStem: 78 217<1118.17 1519.49>
LayerCount: 2
Fore
SplineSet
188 1536 m 0
 264 1536 295 1493 295 1438 c 0
 295 1432 223 922 223 922 c 2
 221 902 202 891 186 891 c 0
 170 891 154 902 150 922 c 2
 150 922 78 1432 78 1438 c 0
 78 1493 116 1536 188 1536 c 0
EndSplineSet
EndChar
